<?xml version="1.0" encoding="utf-8"?>
<!-- Generator: Adobe Illustrator 24.0.1, SVG Export Plug-In . SVG Version: 6.00 Build 0)  -->
<svg version="1.1" id="Capa_1" xmlns="http://www.w3.org/2000/svg" xmlns:xlink="http://www.w3.org/1999/xlink" x="0px" y="0px"
	 viewBox="0 0 612 792" style="enable-background:new 0 0 612 792;" xml:space="preserve">
<style type="text/css">
	.st0{fill:#FFFFFF;}
	.st1{fill:#141C26;}
	.st2{fill:#FEFDFE;}
	.st3{fill:#B3B2B7;}
	.st4{fill:#B4B2B8;}
	.st5{fill:#B8B6BC;}
	.st6{fill:#B0AFB4;}
	.st7{fill:#B6B5BA;}
	.st8{fill:#E4E3E6;}
	.st9{fill:#FBBB2B;}
	.st10{fill:#F0ECD1;}
	.st11{fill:#F0ECD0;}
	.st12{fill:#FFFEFC;}
	.st13{fill:#FCFCFC;}
	.st14{fill:#CC6440;}
	.st15{fill:#CD6540;}
	.st16{fill:#F1B944;}
	.st17{fill:#CD6640;}
	.st18{fill:#F3B32D;}
	.st19{fill:#CE683F;}
	.st20{fill:#CD6740;}
	.st21{fill:#EFB73E;}
	.st22{fill:#EBB43D;}
	.st23{fill:#F2B42E;}
	.st24{fill:#F4BB3F;}
	.st25{fill:#E0A82F;}
	.st26{fill:#F4BC44;}
	.st27{fill:#F3F2F4;}
	.st28{fill:#F6BA31;}
	.st29{fill:#F0B73B;}
	.st30{fill:#D4753E;}
	.st31{fill:#E7A931;}
	.st32{fill:#E4A531;}
	.st33{fill:#ECAD2F;}
	.st34{fill:#F3B32E;}
	.st35{fill:#D4A541;}
	.st36{fill:#D4793D;}
	.st37{fill:#E6A232;}
	.st38{fill:#FBC035;}
	.st39{fill:#E7A830;}
	.st40{fill:#DD9B33;}
	.st41{fill:#F6BE46;}
	.st42{fill:#D06D3F;}
	.st43{fill:#FBE9C5;}
	.st44{fill:#DF9F32;}
	.st45{fill:#FDCC65;}
	.st46{fill:#D0763E;}
	.st47{fill:#EDAD2F;}
	.st48{fill:#EEAD30;}
	.st49{fill:#E59538;}
	.st50{fill:#EAAF2C;}
	.st51{fill:#F9BD35;}
	.st52{fill:#DA7F3C;}
	.st53{fill:#D99A33;}
	.st54{fill:#EBAD2F;}
	.st55{fill:#E0A033;}
	.st56{fill:#E2A531;}
	.st57{fill:#9E9CA4;}
	.st58{fill:#F6B72B;}
	.st59{fill:#D79C33;}
	.st60{fill:#E1A131;}
	.st61{fill:#F9C041;}
	.st62{fill:#DFA032;}
	.st63{fill:#E0A131;}
	.st64{fill:#D39334;}
	.st65{fill:#F0B02E;}
	.st66{fill:#F5BE46;}
	.st67{fill:#D59B31;}
	.st68{fill:#EDEDEE;}
	.st69{fill:#DB9A34;}
	.st70{fill:#41392F;}
	.st71{fill:#F7D898;}
	.st72{fill:#D89933;}
	.st73{fill:#DB9C33;}
	.st74{fill:#FEE9C0;}
	.st75{fill:#DFA12F;}
	.st76{fill:#DDA729;}
	.st77{fill:#CC9238;}
	.st78{fill:#C98A37;}
	.st79{fill:#D29633;}
	.st80{fill:#D09135;}
	.st81{fill:#D39B2F;}
	.st82{fill:#EDAC30;}
	.st83{fill:#F8CA68;}
	.st84{fill:#E5AF38;}
	.st85{fill:#DC9A34;}
	.st86{fill:#F2D190;}
	.st87{fill:#CF9931;}
	.st88{fill:#E5A433;}
	.st89{fill:#F9BB30;}
	.st90{fill:#D77B3D;}
	.st91{fill:#D97E3D;}
	.st92{fill:#A19FA6;}
	.st93{fill:#DBA533;}
	.st94{fill:#E3A433;}
	.st95{fill:#CF8B36;}
	.st96{fill:#D79834;}
	.st97{fill:#EEAF2F;}
	.st98{fill:#E3B042;}
	.st99{fill:#D69435;}
	.st100{fill:#C88936;}
	.st101{fill:#E9E9EA;}
	.st102{fill:#706F7A;}
	.st103{fill:#FCBF39;}
	.st104{fill:#D48B3B;}
	.st105{fill:#F6B72C;}
	.st106{fill:#ECA732;}
	.st107{fill:#94939B;}
	.st108{fill:#C2C1C6;}
	.st109{fill:#D49934;}
	.st110{fill:#DEAA3C;}
	.st111{fill:#ECB33A;}
	.st112{fill:#625032;}
	.st113{fill:#DD9239;}
	.st114{fill:#D7D8D9;}
	.st115{fill:#DC853D;}
	.st116{fill:#4C4136;}
	.st117{fill:#CECDD2;}
	.st118{fill:#C68E35;}
	.st119{fill:#E19B35;}
	.st120{fill:#534531;}
	.st121{fill:#DE9E34;}
	.st122{fill:#DEA031;}
	.st123{fill:#E6E6E7;}
	.st124{fill:#C79033;}
	.st125{fill:#FFFCF6;}
	.st126{fill:#CB6240;}
	.st127{fill:#FFFBF5;}
	.st128{fill:#CE6740;}
	.st129{fill:#28251F;}
	.st130{fill:#25241F;}
	.st131{fill:#FFF6E6;}
	.st132{fill:#FFF8EB;}
	.st133{fill:#423724;}
	.st134{fill:#FFF4DF;}
	.st135{fill:#CF6B3F;}
	.st136{fill:#FFF0D3;}
	.st137{fill:#FFEECE;}
	.st138{fill:#D4733E;}
	.st139{fill:#FFF0D4;}
	.st140{fill:#A37D36;}
	.st141{fill:#FEE3AC;}
	.st142{fill:#FCD482;}
	.st143{fill:#FED37B;}
	.st144{fill:#FEE5B2;}
	.st145{fill:#FFE8BD;}
	.st146{fill:#917133;}
	.st147{fill:#E28F3B;}
	.st148{fill:#FFF1D7;}
	.st149{fill:#6C5834;}
	.st150{fill:#FEE4B1;}
	.st151{fill:#D6783D;}
	.st152{fill:#151C26;}
	.st153{fill:#FFF7E9;}
	.st154{fill:#F9EACF;}
	.st155{fill:#D2703E;}
	.st156{fill:#FEE6B4;}
	.st157{fill:#D87B3D;}
	.st158{fill:#E08B39;}
	.st159{fill:#E28D39;}
	.st160{fill:#FFFDF8;}
	.st161{fill:#FBE6BD;}
	.st162{fill:#F2D18D;}
	.st163{fill:#171E27;}
	.st164{fill:#FEFAF3;}
	.st165{fill:#CC6540;}
	.st166{fill:#FDD37F;}
	.st167{fill:#FFFAF0;}
	.st168{fill:#D97E3C;}
	.st169{fill:#FFF7E8;}
	.st170{fill:#FDDA91;}
	.st171{fill:#FCE3B4;}
	.st172{fill:#FFFAF2;}
	.st173{fill:#D16D3F;}
	.st174{fill:#D87C3C;}
	.st175{fill:#FFF7E7;}
	.st176{fill:#FEF0D4;}
	.st177{fill:#FFF6E3;}
	.st178{fill:#FFEECF;}
	.st179{fill:#FEF9EF;}
	.st180{fill:#DD843A;}
	.st181{fill:#FBFBFC;}
	.st182{fill:#F6DFB2;}
</style>
<g>
	<path class="st0" d="M107.6,606.5c-16.6,0-33.2-0.1-49.9,0.1c-3.4,0-4.1-0.6-4.1-4.1c0.1-139.5,0.1-278.9,0.1-418.4
		c0-28.6,0-57.2,0-85.8c0-2.5-0.2-3.8,3.3-3.8c168.4,0.1,336.8,0.1,505.2,0c4,0,3.4,1.9,3.4,4.3c0,154.2,0,308.5,0,462.7
		c-2.6,0.4-3.4-1.8-4.3-3.4c-17.4-29.3-35.2-58.4-50.6-88.8c-2.7-5.3-4-10.9-4.5-16.7c-0.3-2.9,0.5-5.5,2.4-7.3
		c4.6-4.3,9.9-7.4,16.1-8.5c5.6-1,8.8,1.6,10.5,7.1c2.2,6.9,6.5,12.6,11,18.2c1.3,1.6,3.1,1.7,5,1.2c7.8-2.3,12.8-12.9,8.5-19.9
		c-6.1-9.9-11.8-20.1-20.2-28.3c-2.9-2.8-6.1-5-9.5-7.2c-3.2-2-3.2-3.4,0.1-4.7c7.9-3.2,12.2-9.6,15.8-16.6
		c4.8-9.3,9.5-18.7,14.7-27.8c3.2-5.6,1.9-11.1-1.3-16c-7.6-11.9-15-23.9-24.2-34.8c-4.3-5.1-9-9.8-13.1-15c-2.5-3.3-5.7-4.7-10-4.5
		c-5,0.2-10,0-15,0.1c-5.8,0.1-7.8,2.2-7.5,7.9c0.1,1.6,0.7,3.8-1.1,4.5c-2.1,0.9-3.1-1.3-4.2-2.7c-7-8.9-16.7-11.7-27.4-7.4
		c-8.1,3.2-15.3,7.9-20.7,15c-3.5,4.6-4.4,4.6-7.6,0.1c-6.7-9.3-16-14.3-26.8-16.8c-2.8-0.7-5.3,0.1-7.8,1c-3.3,1.3-6.4,1.4-9.7-0.2
		c-1.3-0.7-2.8-1-4.3-1.2c-7.5-1.1-10.4,1.4-10.7,9c-0.1,2.2,0.9,5.5-1.6,6.3c-2.1,0.7-3.3-2.4-4.3-4.2
		c-6.7-11.6-17.8-11.8-28.5-9.7c-15,3.1-27.4,10.9-34.1,25.7c-0.3,0.6-0.5,1.2-0.9,1.8c-0.5,1-0.9,2.5-2.2,2.5
		c-1.5,0-2.2-1.5-2.4-2.8c-1.5-9-7.9-15.2-12.4-22.5c-1.9-3-5-4.2-8.3-5.1c-5.1-1.5-10.2-1.4-15.3-0.9c-4.8,0.5-6.9,4-4,7.7
		c5.1,6.6,2.4,11.1-1.9,16.6c-7.3,9.2-11.8,20-15.3,31.1c-0.5,1.6-1,3.2-1.5,4.8c-0.5,1.4-0.9,3.1-2.7,3.2c-1.5,0.1-2.3-1.3-2.9-2.4
		c-3.4-5.3-6.5-10.8-9.7-16.3c-6-10.4-12-20.7-17.4-31.4c-0.6-1.2-1.2-2.4-1.7-3.6c-3.6-9.1,2.3-17.9,12.1-18.1
		c2.5-0.1,4,1.3,5.2,3.2c2.2,3.5,4.1,7.2,6.7,10.5c1.9,2.5,3.5,6.6,7.6,5.1c4.1-1.5,7.2-4.7,8.1-9.4c0.4-2,0.3-4.1-0.8-5.8
		c-5.3-8.2-9.9-17-16.6-24.2c-11.4-12.2-25.3-12.4-40-8.1c-2.1,0.6-3.9,1.9-6.2,1.7c-1.1-0.2-2-0.7-2.2-1.9c0-0.7,0.2-1.4,0.7-1.8
		c11.2-9,21.1-19.9,35.3-24.7c8.1-2.7,16.5-3.6,24.9-4.8c5.6-0.8,7.5-4.3,4.9-9.2c-7-13.1-16.2-23.7-30.4-29.5
		c-15.3-6.2-29.6-4.5-43,4.8c-6.2,4.3-11.2,9.8-15.8,15.8c-3.7,4.9-5,5-8.7,0.4c-5.9-7.2-13.4-10.8-22.6-10.5
		c-4.5,0.1-6.9-1.6-8.4-5.9c-7-19.4-11.7-39.2-10.5-60c0.3-5.7-1.1-10.8-4.6-15.4c-2.4-3.2-4.2-6.8-6.8-9.8
		c-2.7-3.2-5.4-3.4-7.9-0.2c-19.3,25.1-28.7,57.1-13.3,89.1c3.7,7.7,8.2,14.8,12.9,21.9c2.4,3.5,2.2,6.4,0.2,10.4
		c-4,8-4.8,16.8-0.5,25.2c1.7,3.4,3.8,6.6,6.1,9.7c2.4,3.3,2.6,6.6,1.1,10.3c-3.1,7.4-5.7,14.9-7.7,22.6c-2.7,10.6-2.8,21,1.6,31.2
		c2.7,6.3,1.7,12.8-0.1,19.1c-2.8,10.1-5.6,20.1-11.6,29c-3.4,5-3.4,10.6,0.3,15.9c3,4.4,5.9,8.8,8.7,13.4c1.4,2.3,1.6,4.2-1.7,4.6
		c-9.2,1.3-13.7,7.7-16.5,15.5c-3.6,10.4-5.4,21.3-5.5,32.3c-0.1,9.2,5.8,15.7,11.2,22.1c2.5,3,7,1.4,8.9-2.6
		c2-4.2,3.4-8.6,5.3-12.9c2-4.6,4.6-8.8,7.9-12.6c1-1.1,2.2-2.4,3.8-1.9c1.7,0.6,1.5,2.4,1.7,3.8c0.2,1.5,0.1,3,0.1,4.5
		c0,37.7,0,75.4,0,113.2c0,4.4-0.3,8.6-2.6,12.5c-1.7,2.9-1.2,5.8,0.4,8.6c4,6.9,7.9,13.9,13.8,19.4
		C107.9,605.5,107.9,606,107.6,606.5z"/>
	<path class="st1" d="M178.6,252.4c8.6-3.5,17.3-5.6,26.7-4.3c9.4,1.3,17,5.8,22.5,13.4c4.9,6.7,9.4,13.7,13.8,20.8
		c4.3,6.9-0.1,16.7-8,18.7c-3,0.8-4.8-0.8-6.2-3c-3.1-4.7-6.3-9.4-9.1-14.3c-1.5-2.7-3.1-2.8-5.6-2c-10.3,3.5-13.7,7.7-7.9,19.1
		c8.9,17.4,18.8,34.3,29.3,51.6c1.8-5.4,3.4-10.2,5.1-15c4-11,9.4-21.3,17.1-30.1c1.9-2.2,1.9-3.6,0.4-6c-1.9-3.2-5.8-6.2-3.3-10.7
		c2.5-4.5,7.2-3.2,11.2-3.4c9.9-0.3,18,2.5,23.2,12.1c3.5,6.6,8.8,12.4,9.4,21.4c8-19.9,22.4-29.7,41.9-32.5c2.9-0.4,6-0.2,8.9,0.3
		c6.8,1.1,12.9,3.3,16.1,10.2c0.8,1.7,2.1,3.2,3.9,6c0-3.1,0-4.9,0-6.6c0-9.6,4.1-13.4,13.2-10.2c6,2.1,10.9,2.4,16.4-0.2
		c1.4-0.7,2.9-0.1,4.4,0.2c12.7,3.2,23.6,8.8,30,21.6c6.1-9.3,13.9-15.4,23.4-19.4c7.7-3.3,15.1-2.6,22.7,0.4c4.9,2,6.5,6.9,10.4,11
		c-0.2-2.4-0.2-3.9-0.4-5.3c-0.6-6,1.8-8.8,7.7-8.8c6.3-0.1,12.6,0.1,19-0.1c2.4-0.1,4,0.8,5.6,2.5c15.3,15.9,28.4,33.4,39.8,52.2
		c4,6.6,4.5,13,0.2,20.1c-5.3,8.6-9.7,17.8-14.4,26.8c-4.1,7.7-9,14.4-19.4,16.5c18.2,7.7,25.3,24,34.6,38.3
		c4.9,7.5-2.2,20.6-11.1,21.8c-2.9,0.4-4.9-1.1-6.1-3.4c-3.6-6.8-9.7-12.1-10.8-20.5c-0.4-3.5-4.9-3.2-8-3.3c-0.9,0-2,0.3-2.9,0.7
		c-16.2,6.5-18.8,9.5-11.7,28c4.7,12.4,12.2,23.6,18.8,35.1c11.1,19.3,22.5,38.4,33.8,57.6c0.6,0.9,0.7,2.3,2.3,2.3c0,0.3,0,0.7,0,1
		c-1,2.2-0.3,4.5-0.5,6.8c0,2.5-0.8,4.8-2.2,7c-8.4,13.6-19.8,23.3-35.3,28c-5,1.5-10.1,1.6-15.2,1.6c-2.1,0-4.1,0-6.2,0
		c-23.6-2.7-44.5-10.4-58.1-32.1c-1.4,4.2-2.4,8.3-3.6,12.3c-1.5,5.1-3.4,10.1-5.9,14.7c-1.8,3.3-4.2,5.5-8.3,5
		c-24.6,0-49.2,0-73.8,0c-0.6-0.2,0.1,0.2-0.5-0.1c-6.9-2.6-16.7-18.8-14.6-25.7c4.9-16.2,4.2-32.8,4.2-49.4
		c0-19.8-0.1-39.5,0.1-59.3c0.1-9.3-1.4-18.5-1.3-27.8c0-1.7-0.1-3.6-1.1-5.3c-2.8,3.3-2.7,7.1-2.7,10.9c0,49,0,98,0,146.9
		c0,3.5,0.8,7.5-3.6,9.5c-1.9,0.4-3.8,0.1-5.8,0.2c-2,0.1-3.5-0.7-4.8-2.1c-11.3-11.3-23.1-22.2-32.8-35.1c-1.1-1.4-2.3-2.8-2.8-4.6
		c-0.1-0.3-0.2-0.6-0.2-0.9c-0.4,0.6,0.3,1,0.3,1.6c3.8,10.2,6.3,20.7,9,31.1c1.5,6-2.1,9.3-9.7,10c-9.9,0-19.8,0-29.7,0
		c-4.6,0.3-8-1.8-10.5-5.5c-2.8-4.1-5.6-8.2-8.1-12.5c-1.8-3.1-2.4-6.2-0.9-9.5c5.8-12.6,1-24.8-1.4-37c-0.4-2-1.8-2.6-3.8-2
		c-9.7,3.1-19.2,6.4-28.6,10.2c-2.2,0.9-3.1,2.8-3.5,5.1c-0.8,4.4-1.5,8.9-1.7,13.3c-0.5,9.9-5.1,17.9-11.6,24.7
		c-6.3,6.5-13,13-22.8,13.8c-0.7,0-1.3,0-2,0c-3.4-0.9-5.7-3.1-7.6-6c-12.9-19.3-13-19.3-9.8-42.2c3.6-26.6,9.9-52.6,21.6-77
		c1.5-3.1,1.3-5.6-0.7-8.3c-2.4-3.2-4.5-6.6-6.6-10c-1.5-2.4-3.4-4.8-3.6-7.6c-0.5-7.4-5.9-10.3-11.3-13.3c-2.7-1.5-4-0.5-4.3,2.4
		c-0.2,1.8-0.1,3.7-0.1,5.5c0,33.7-0.1,67.5,0,101.2c0.1,15.1,1.4,30.2,4.9,45c1.5,6.2,0.6,8.1-4.2,9.7c-12-0.2-24.1,0.5-36.1-0.4
		c-2.4-0.5-4.1-2.2-5.4-4.2c-3.1-4.7-6.2-9.5-9.2-14.2c-2.5-4-2.8-8.1-0.2-12.2c1.4-2.3,2.2-4.7,2.2-7.5
		c-0.1-40.6-0.2-81.1-0.3-121.7c0-0.6-0.1-1.3-0.2-2.3c-2.5,0.9-3.8,2.9-5.1,4.7c-5,7-8,14.9-10.9,22.8c-2.1,5.8-8.7,6.9-12.4,2
		c-3.5-4.8-6.6-10-9.8-15c-1.8-2.9-0.9-6.2-0.7-9.3c0.7-10.8,2.1-21.5,6.1-31.7c3.3-8.5,8.2-15.4,19.5-15
		c-3.5-5.4-6.7-10.3-9.8-15.2c-5.1-8-4.5-12.6,0.5-20.7c7-11.3,10.1-24.1,12-37.1c0.3-2.2-0.4-4.3-1.4-6.3
		c-5.5-11.6-5.1-23.4-1.5-35.4c2.2-7.5,4.6-14.9,7.8-22.1c1.1-2.5,1-4.2-0.7-6.3c-2-2.6-3.3-5.9-5.5-8.3c-4.9-5.1-4.7-11.9-4.4-17.5
		c0.2-4.2,0-10.1,4.5-13.6c2.2-1.7,1.2-3.3,0.1-5.1c-4.1-6.8-8.9-13.2-12.5-20.4c-15.1-29.8-11.5-58.4,5.8-86
		c1.9-3.1,4.1-6.1,6.3-8.9c2.8-3.6,6.5-3.7,9.1-0.1c3.8,5.3,7.5,10.6,10.6,16.3c2.6,4.8,1.4,10.5,1.3,15.7
		c-0.3,19.8,4.9,38.4,11.5,56.8c0.5,1.4,0.7,2.9,3.2,3c17.1,0.5,19.4,1.8,30.2,15c3.7-5.7,8-10.7,12.8-15.3
		c17.9-17.1,40.2-18.7,61-5c9.9,6.5,15.7,16.1,21.6,25.6c3,4.9,0.1,9.5-5.7,10.3c-6.7,0.9-13.5,1.9-20.1,3.3c-7.2,1.5-14,4.3-19.8,9
		c-7.2,5.9-14.4,11.7-21.6,17.6c-2.3,4-7.3,4.5-10.1,7.9C170.3,256.6,173.8,253.3,178.6,252.4z"/>
	<path class="st0" d="M167.5,606.5c11.1-3.8,19.4-11.2,26.5-20.3c3.8-4.9,5.9-10.2,6.4-16.4c0.4-4.6,1.7-9.2,1.8-13.8
		c0.1-5.3,2.6-7.4,7.3-8.9c9.2-2.8,18.1-6.2,27.1-9.5c2.6-1,3.5-0.6,4.1,2.3c1.7,7.9,3.2,15.9,4.3,24c0.6,4.9-0.4,9.6-2.6,14
		c-1.8,3.5-1.6,6.5,0.7,9.7c2.5,3.5,4.7,7.2,7,10.9c2.2,3.5,5.1,6,9.1,7.2c0.4,0.2,0.5,0.3,0.4,0.5c-0.1,0.2-0.2,0.3-0.3,0.3
		C228.7,606.5,198.1,606.5,167.5,606.5z"/>
	<path class="st0" d="M144.6,605.5c2.5-1.5,3.3-3.6,2.6-6.4c-5.3-20.3-5.8-41.1-5.9-61.8c-0.2-29.1,0-58.2-0.1-87.3
		c0-3.8,0.3-7.6,1.7-11.5c5.6,2.2,10.4,5.3,15,8.8c0.8,0.6,1.5,1.4,1.5,2.5c0.1,10.2,7.1,16.8,12.4,24.3c1.3,1.9,1.2,3.1,0.4,4.8
		c-14.3,29.7-21.2,61.4-24.5,94c-0.4,4.1,0,8.2,2,11.6c4.6,7.8,8.6,16,15.8,21.9c-7,0-14,0-21,0c-0.3-0.2-0.4-0.4-0.3-0.6
		C144.3,605.6,144.4,605.5,144.6,605.5z"/>
	<path class="st2" d="M336.1,605.6c3.6-1.6,2.9-4.9,2.9-7.8c0-49.2,0.1-98.3-0.1-147.5c0-6.5,1.4-12,5.7-17.2
		c1.7,9.3,1.8,18.5,1.9,27.6c0.3,32.2,0.3,64.4,0.4,96.6c0,7-1.6,13.8-3.6,20.5c-1.5,5-1.3,9.4,2.1,13.6c3.8,4.6,5.4,10.7,10.6,14.2
		c0.4,0.2,0.5,0.3,0.4,0.5c-0.1,0.2-0.2,0.3-0.3,0.3c-6.7,0-13.3,0-20,0c-0.3-0.2-0.4-0.4-0.3-0.6
		C335.9,605.7,336,605.6,336.1,605.6z"/>
	<path class="st0" d="M431.9,605.6c3.9-1.3,5.3-4.9,6.9-8.1c4-8.4,6-17.4,8.4-26.4c2.1,0.9,2.7,2.7,3.6,4.2
		c5.4,9.4,13.3,15.9,23.1,20.4c10.2,4.7,20.8,7.7,31.7,9.9c0.4,0.2,0.5,0.4,0.4,0.6c-0.1,0.2-0.2,0.3-0.3,0.3c-24.6,0-49.2,0-73.8,0
		c-0.3-0.2-0.4-0.4-0.3-0.6C431.7,605.7,431.8,605.6,431.9,605.6z"/>
	<path class="st0" d="M291.1,563.6c10.2,14.3,23,26.3,35.1,38.8c1.1,1.2,2.5,2.1,3.8,3.2c0.4,0.2,0.5,0.4,0.4,0.6
		c-0.1,0.2-0.2,0.3-0.3,0.3c-13,0-25.9,0-38.9,0c-0.3-0.2-0.4-0.4-0.3-0.6c0.1-0.2,0.3-0.2,0.4-0.2c8.1-3.1,9-4.8,6.6-12.9
		c-2.9-9.7-5.8-19.3-7.8-29.2C290.4,563.3,290.8,563.2,291.1,563.6z"/>
	<path class="st0" d="M512.7,605.6c22.4-1.4,38.7-12.5,50-31.5c0.8-1.4,1.3-3,2-4.5c0.3-0.5,0.6-0.5,0.9-0.1
		c0,11.3-0.1,22.6,0.1,33.9c0,2.5-0.6,3.1-3.1,3.1c-16.6-0.1-33.3-0.1-49.9-0.1c-0.3-0.2-0.4-0.4-0.3-0.6
		C512.5,605.7,512.6,605.6,512.7,605.6z"/>
	<path class="st3" d="M431.9,605.6c0,0.3,0,0.6-0.1,0.9c-25.3,0-50.6,0-75.8,0c-0.1-0.3-0.1-0.6-0.1-0.9
		C381.3,605.6,406.6,605.6,431.9,605.6z"/>
	<path class="st4" d="M144.6,605.5c-0.1,0.3-0.1,0.6,0,0.9c-12.3,0-24.6,0-36.9,0c0-0.3,0-0.6-0.1-0.9
		C119.9,605.6,132.2,605.5,144.6,605.5z"/>
	<path class="st3" d="M291.3,605.7c0.1,0.3,0,0.6-0.1,0.8c-10.6,0-21.3,0-31.9,0c0-0.3-0.1-0.6-0.1-0.9
		C269.9,605.6,280.6,605.6,291.3,605.7z"/>
	<path class="st5" d="M512.7,605.6c0,0.3-0.1,0.6-0.1,0.8c-2.3,0-4.7,0-7,0c0-0.3,0-0.6,0-0.9C508,605.6,510.4,605.6,512.7,605.6z"
		/>
	<path class="st6" d="M565.6,569.6c-0.3,0-0.6,0-0.9,0.1c0.2-2.4-1-4.9,0.9-7C565.6,564.9,565.6,567.2,565.6,569.6z"/>
	<path class="st7" d="M330.1,606.5c0-0.3,0-0.6-0.1-0.9c2,0,4.1,0,6.1,0c0,0.3,0,0.6-0.1,0.9C334.1,606.5,332.1,606.5,330.1,606.5z"
		/>
	<path class="st8" d="M178.6,252.4c-4.4,3.3-9.4,5.7-13.7,9.3c0.1-7.5,7.7-7,11.5-10.5C176.8,252.2,177.8,252.2,178.6,252.4z"/>
	<path class="st9" d="M220.3,190.5c3.2,2.7,8.4,3.6,8.8,9c-7.6,0.7-15.3,1-22.9,1.6c-13.4,0.6-23.1,8.5-32.6,16.5
		c-5.3,4.5-10.8,8.8-16.1,13.2c-1,0.7-2,1.5-3.1,2.1c-0.5,0.2-1,0.2-1.5,0.4c0.6,0.2,1.2,0.2,1.8,0.4c0.6,0.4,1.1,0.8,0.7,1.6
		c-4.4,1.1-5.5,4.3-5.7,8.5c-0.1,3.8-0.4,7.6,0.2,11.4c0.3,1.9,1.7,4.5-2.4,4.1c-1.1-0.1-0.9,1.6-0.8,2.5c0.1,1.6,0.4,3.2,0.7,4.9
		c-2.6,0.6-3.1-2.4-5.1-2.5c-1.6,1.2-0.4,3.2-1.4,4.9c-2.8-1.2-5.2-4.9-9-2c-4.1,3.1-5,7.2-4.6,11.9c0.5,6.8,3.6,12.4,8,17.3
		c4.2,4.7,8.7,9.1,13.5,13.2c5.1,4.3,9.6,9.1,14,14.1c9.7,11,11.5,23.6,8,37.2c-0.7,2.9-0.2,4.8,1.6,6.7c5.6,6.2,12.9,8.2,20.8,6.9
		c8.8-1.5,14.9-14.2,11-22.6c-4.5-9.4-9.5-18.6-14.3-27.9c1.5-1.4,0.1-2.5-0.3-3.7c-0.6-1.3-1.3-2.7-2-4c-0.6-1.3-1.3-2.6-2.3-3.7
		c-0.4-0.5-0.8-1.1-1-1.7c-0.8-3.1-2.2-6-4.3-8.5c-2.2-5.9-4.9-11.6-7.9-17.1c-4.4-8.1-3.5-14.8,3-21c0.5-0.5-0.1,0.1,0.3-0.3
		c0.3-0.3,0.7-0.7,1-1c-0.4,0-0.5,0.4-0.9,0.5c-0.8,0.5-1.7,0.6-2.6,0.3c-0.4-0.2-0.8-0.5-0.9-0.9c11-11.2,32.8-13.6,45.2-5
		c0.4,0.7,0.4,1.6,0.8,2.3c0.9,1.4,1.9,2.7,3,4c3.3,3.7,3,8.3,3.4,12.8c0.1,0.5,0,0.9-0.3,1.2c-1.4,1.5-2.7,2.3-3.5-0.4
		c-0.3-0.9-0.4-1.9-0.5-2.9c-0.7-6.7-4.1-11.7-10.4-13.9c-6.9-2.5-13.1-0.4-18.5,4.2c-3.8,3.3-4.7,7.9-3.9,12.8
		c0.9,5.3,3.4,10,5.8,14.8c8.7,16.8,18.7,32.9,27.9,49.3c0.8,1,0.5,1.7-0.6,2.1c-0.7-0.2-1.4-0.5-1.5-1.3c-0.2,1,0.8,1.5,1,2.4
		c0.4,1.4,0.7,2.8,1.1,4.1c0.5,11.9-9.7,25.6-22.8,30.6c-0.8,0.2-1.5,0.3-2.3,0.3c-5.9,0-11.9,0.6-17.6-1.4
		c-1.9-0.6-3.5,1.1-5.2,0.2c-5.9-3-11.5-4.4-17.5,0.3c-2,1.6-5.3,1.7-8.2,1.5c-6.8-0.6-13.5-1.7-20.1,1.7c-2.6,1.3-6.3,0.7-7.8-2.4
		c-1.7-3.5-0.1-6.8,2.1-9.6c5-6.4,12.1-8.3,19.8-8.7c0.6-0.4,1.9-0.5,1-1.7c-1.1-0.2-2.3-0.5-3.4-0.6c-6.6-0.6-7.5-1.3-8-8
		c-0.4-5.5,0.5-10.8,3.3-15.7c0.7-0.3,0.7-1,0.5-1.5c-0.3-0.6-0.8-0.8-1.4-0.3c-3.8,2.7-4.4,7.1-5.8,11c-1.3,2-0.3,4.2-0.7,6.2
		c-0.2,1.3,0.8,3.1-1.1,3.9c-2.6-1.4-2.8-3.8-2.8-6.4c0-4.2,0.7-8.2,1.5-12.3c0.5-2.2,1.3-4.3,0.6-6.6c0.8-1.8,1.5-3.7,2.5-5.3
		c1.7-2.6,1.7-4.6-1.7-5.5c-3.5-0.9-0.9-3.4-1.4-5c-0.1-1.8-0.1-1.8-2.1-1.1c-0.4,3-2.3,6.3,1.1,8.8c1.2,0.9,0.7,1.6,0.2,2.5
		c-3.9,6.8-4.9,14.4-6.5,21.9c-2.5,11.6-6.7,22.5-12.4,33c-1.9,3.5-4.7,4.8-8.5,4.8c-7.6,0-10.3-4-6.3-10.5
		c4.8-7.7,7.7-16.1,10.9-24.5c1.3,0.1,1.4,1.1,1.6,2.1c-0.1,2.6-1.1,5-2.2,7.4c-0.2,0.4-0.3,0.8-0.7,1.2c0.2,0.1,0.4-0.1,0.5-0.5
		c2.2-5.2,4.1-10.4,5.6-15.8c1.7-6.2,1.8-12.3-0.8-18.3c-0.4-1.2-0.9-2.4-1.5-3.5c0.7,1.6,1.2,3.2,1.9,4.8c0.2,1,0.3,1.9,0.4,2.9
		c-0.2,1.5,0.2,3.3-1.9,3.7c-1.1-3-1.5-6.2-3.3-8.9c-1.8-1.3-2.3-3.3-3-5.2c-0.1-0.9-0.7-1.6-0.9-2.5c-0.1-1.1-0.6-2-1.1-2.9
		c-0.4-0.5,0.5-0.6-0.1-0.4c-0.3,0.1-0.3,0,0,0.4c0.3,0.5,0.5,1,0.7,1.6c0.3,1.1,0.5,2.2,1.1,3.2c0.2,1.1,0.6,2.2,1.1,3.3
		c1.2,2.5,0,5.3,1.1,7.7c0.1,14.7-5,27.8-11.8,40.4c-1.5,2.8-3.1,5.5-3.2,8.7c-0.1,3-0.9,4.7-4.3,4.7c-3.2,0-6.4,0.3-7.7-3.7
		c-0.9-2.5-0.7-5.2,0.8-7.2c5.9-7.5,8-16.6,11.2-25.3c0.5-0.3,0.9-0.3,1.3,0.2c1.2,2.6-0.4,4.8-1.2,7.1c-0.5,2.3-1.6,4.4-2.5,6.5
		c-0.2,0.6-0.3,1.3-0.6,1.8c0.5-0.5,0.4-1.2,0.7-1.9c0.8-2,1.8-3.9,2.4-6c2.5-6.2,4.7-12.4,6.1-18.9c1.3-6.2,1.7-12.4-0.9-18.1
		c-5.1-11.3-3.3-22.3-0.2-33.5c0.7-1.8,1.2-3.6,1-5.1c0.2,0.5-0.2,1.6-0.3,2.6c-1.1,1.8-0.4,4.7-3.2,5.6c-1.4-0.5-1.3-1.4-0.8-2.5
		c1.6-7.8,5.2-14.9,8-22.3c1.9-5-2.4-16.2-7.5-18.1c-3.2-1.2-5.5-1.9-2-5.4c1.3-1.3,1-2.7-0.7-3.6c-0.7-0.4-1.2-1.1-1.8-1.6
		c4.2-2.9,1.4-8.2,3.8-11.4c5.1-6.8,5.3-6.6-0.1-13.2c-0.7-0.9-1.8-1.5-1.6-2.9c2.7-1.3,0.4-2.9-0.1-4c-3.3-7.4-6.8-14.8-8.9-22.7
		c-6-22.4-4.4-44.3,4.8-65.6c0.8-1.4,1.4-3,2.2-4.4c1.7-2.9-2,0.3-1.4-1.3c1.8-2.5,3-7.3,5.8-6.6c3.3,0.8,1.6,5.5,1.5,8.4
		c-0.9,22.5,4.8,43.7,12.3,64.6c2.5,7,4.8,14.1,6.1,21.5c0.4,2.1,0.9,2.8,3.2,1.8c16.8-7.5,30.3,0.4,36.3,13.9
		c0.3,0.7,0.8,1.4,1.3,2.3c1.8-2.5,3.4-4.8,5.1-7c0.8-0.1,1.1,0.4,1.4,1c0.2,0.5,0.2,1.5,1.1,0.4c8.8-8,18.2-15,29.7-18.8
		c10.8-3.8,21.6-2.4,32.4,0.1C218.3,190.4,219.3,190.1,220.3,190.5z"/>
	<path class="st0" d="M384.2,405c3.1,0,5.2,0,7.3,0c5.9-0.1,8.5-2.8,7.4-8.4c-1.4-7.8-0.5-15.5-0.9-23.6c2.4,0.7,2.6,2.7,3.5,4.2
		c8.2,14.3,16.3,28.5,27.1,41.1c5.9,6.9,12.8,12.6,22.2,14c2.1,0.3,2.8,1.3,2.6,3.3c-0.6,4.4,1.3,8,3.5,11.6
		c17,28.1,33.8,56.3,49.2,85.4c1.7,3.2,3.3,6.5,4.8,9.8c1.4,2.9,2.1,5.7,1.4,9.1c-3.6,17.5-15.1,18.9-30.5,13.1
		c-2.3-0.9-2.8-3.1-2.6-4.9c1-11-5-19.2-10.8-27.5c-3.5-5-8.9-5.7-13.3-1.4c-4.6,4.5-4.6,4.5-8-0.9c-1.2-2-2.7-3.8-3.7-5.9
		c-1.7-3.5-4.5-4.5-8.2-4.2c-3.4,0.3-4.6,2.5-5.9,5.2c-5.3,11.6-11,23.1-19.7,32.7c-3.4,3.7-7.1,7-11.9,8.7
		c-3.5,1.3-5.2,0.9-5.1-3.7c0.2-29.2,0.1-58.5,0.1-87.7c0-9.8,0.1-19.6,0-29.4c-0.1-5,0-9.8,3-14.3c2.3-3.4,1-7-1.1-10.3
		C391.3,416,388,410.9,384.2,405z"/>
	<path class="st10" d="M196.4,408.4c1.7-1.8,3.9-2.4,6.2-2.3c9.5,0.2,18.9,0.5,28.1,3.2c6.9,2,11.3,5.6,13.1,13.6
		c12.2,52.2,24.8,104.3,39.6,155.8c1.3,4.7-0.8,5.9-4.4,6c-9.5,0.2-19,0.2-28.4,0c-4.6-0.1-5.7-1.8-3.9-5.9c3.1-7,2.8-14.2,1.6-21.5
		c-2.4-14.2-5.6-28.3-9-42.3c-0.6-2.4-1.5-2.8-3.8-2c-14.7,5.3-29.4,10.5-44.1,15.7c-2.1,0.7-2.6,2.1-2.9,4.1
		c-1,7.1-2.3,14.1-3,21.2c-0.5,4.7-2,8.6-4.7,12.3c-5.1,7-11.4,12.5-18.7,16.9c-5.7,3.4-9.2,1.7-9.9-5c-0.9-9,1-17.9,2.4-26.7
		c5.5-33.6,15.7-65.4,34.6-94.1c6.5-9.9,14-19.1,22.9-26.9c3.2-2.8,3-4.7,0.7-7.7c-3.5-4.5-7.9-8-12.6-11.2
		C198.9,410.7,197.1,410.3,196.4,408.4z"/>
	<path class="st10" d="M508.9,407c17,0.1,29.5,7.8,38,22.3c2.9,4.9-1.4,13.6-6.9,14.6c-2.6,0.5-2-1.5-2.2-2.9
		c-0.9-7.5-3.6-14.1-9.6-19.1c-9.8-8.1-29.3-4.1-34.2,7.7c-2.7,6.5-2.4,13.7,0.8,20.3c11.1,22.5,24,44,36.6,65.7
		c5.6,9.6,11.2,19.2,17,28.7c2.5,4.2,2.4,8-0.2,12.1c-10.9,17.4-26.3,28.1-47.1,28c-18.1-0.1-34.8-6.3-49.2-17.8
		c-2.5-2-4.4-4.5-6-7.3c-4.1-7.5-3.6-10,2.5-15.6c3-2.7,5.8-5.5,8.5-8.4c1.4-1.5,2.9-2.9,5.1-2.4c2.6,0.7,1.5,3,1.6,4.6
		c0.7,5.4,1.2,10.9,3.1,16.1c5.8,15.8,20.4,20.3,34.3,18.3c4.6-0.7,8.3-3.7,10.6-7.7c4.7-8.2,6.9-16.4,2.2-25.9
		c-12.5-25-26.8-48.9-40.9-73c-4.5-7.7-9.1-15.4-13.8-23.1c-2.7-4.5-2.3-8.1,1.4-12C475.4,414.6,490.7,407,508.9,407z"/>
	<path class="st11" d="M126.5,489.9c0.2,21.3-0.8,45.8,1.9,70.1c0.8,7.3,1.8,14.5,3.5,21.6c0.6,2.5,0,3.2-2.5,3.2
		c-9.8-0.1-19.6,0-29.4-0.1c-4.5-0.1-6.2-2.6-3.8-6.5c2.8-4.6,3-9.3,3-14.3c-0.1-47.1,0-94.1,0-141.2c0-5.9-0.4-6.3-6.2-5.5
		c-7.2,1.1-12.3,5.5-16.5,11.1c-5.2,6.8-8.3,14.7-11.3,22.6c-0.7,1.8-0.7,4.2-3.6,3.7c-3.4-0.6-1.6-3.2-1.5-4.8
		c0.8-9.6,1.9-19.2,4.9-28.4c1-3,2.3-5.8,4.1-8.5c2.7-4,6.2-6.1,11.2-6c22.4,0.2,44.9,0.2,67.3,0c5.5,0,9.2,2.3,11.9,6.7
		c5.4,8.9,6.8,19,8.3,29c0.5,3.1,0.5,6.3,0.8,9.4c0.1,1.5-0.2,2.6-2.1,2.6c-1.9,0-2.1-1.1-2.3-2.5c-2-18.3-15-27.1-29.8-34.3
		c-3.3-1.6-5.7-1.1-6.2,3.2c-0.5,4.6-1.5,9.1-1.5,13.8C126.6,452.2,126.5,469.5,126.5,489.9z"/>
	<path class="st10" d="M384.1,584.8c-11,0-21.9-0.1-32.9,0.1c-3.8,0.1-5.3-0.7-4.1-4.7c3.7-11.6,4-23.5,3.8-35.5
		c-0.5-34.6,0.9-69.1-1.2-103.7c-0.6-10.1-1.7-20.2-4.4-30c-0.9-3.2,0-4,3.2-3.9c9.1,0.2,18.3,0,27.4,0.1c5.8,0,7.6,3,4.6,7.9
		c-2,3.3-2.6,6.6-2.6,10.3c0.1,46.2,0.1,92.4,0.1,138.6c0,7.7,0.8,7.9,8.1,8.6c13,1.2,21.9-5,29.4-14.5c7-8.9,12.3-18.9,17-29.2
		c0.5-1.1,0.9-2.2,1.5-3.1c0.9-1.3,2.4-1.1,3.7-0.8c1.6,0.4,1.2,1.9,1,2.9c-4.2,16.9-7,34.1-13.6,50.4c-1.9,4.7-4.5,6.9-10,6.7
		C404.8,584.4,394.4,584.8,384.1,584.8z"/>
	<path class="st11" d="M324.2,504.7c0,25.3,0,50.5,0,75.8c0,1.4,0.8,3.2-1,4c-1.7,0.8-3.2-0.1-4.4-1.4
		c-9.9-10.3-20.2-20.2-29.3-31.2c-2.2-2.6-2.3-4.3-0.2-7.2c6.7-9.2,10.3-19.4,10.1-31.1c-0.3-25.1-0.2-50.2,0-75.3
		c0.1-9.6-2.2-18.3-7.2-26.5c-2.4-3.9-1.9-4.8,2.7-4.8c11.5,0,22.9,0.1,34.4-0.1c4-0.1,5.1,1.4,2.7,4.5c-7.4,9.1-8.2,19.6-7.9,30.9
		C324.6,463.2,324.2,483.9,324.2,504.7z"/>
	<path class="st0" d="M221.1,401.5c3.7-2.1,7.5-3.7,10.1-6.7c3.5-3.9,4.9-2,7,1.3c6.9,11.1,10.8,11.5,20.3,2.5
		c5.2-4.9,7.9-10.9,8.4-18c0.1-1.9-0.5-4.4,1.7-5.4c3.3-1.5,6.8-2.6,10.3-3.7c1.1-0.4,1.1,0.9,1.3,1.6c0.1,0.7,0.3,1.5,0.1,2
		c-5,9.4,2,15.5,6.2,22.3c1.5,2.5,3.2,4.3,0.8,7.6c-1.9,2.5-1.1,6.1,0.9,8.9c5.5,7.8,7.3,16.5,7.2,25.9c-0.2,25.4,0,50.8-0.1,76.2
		c0,10.2-4,18.9-10.6,27.7c-2.5-9.8-5-18.8-7.2-27.9c-6.6-27.4-13.9-54.6-19.9-82.1c-3.2-14.6-18.2-28.6-32.9-30.9
		C223.6,402.7,222.3,403,221.1,401.5z"/>
	<path class="st9" d="M372.3,355.1c-0.1-19.6-0.2-39.1-0.3-58.7c0-2.9,1.3-4,4.3-4.1c3.4,0,6.6,0.4,9.4,2.5c1.6,1.2,3.2,1.4,5,0.4
		c10.3-5.4,18.7-0.3,27.2,4.8c0.4,0.7,1.4,1.1,1.4,2.1c0,1.6,0.7,3,1.4,4.4c2.5,5.3,0.6,9.7-2.8,13.6c-2.5,2.9-5.3,5.4-8,8.1
		c-1.1,1.1-2.3,2.1-3.4,3.2c-1,1-2.1,2-3,3.1c-0.5,0.7-0.5,1.5-0.7,2.3c-2.8,2.5-1.5,5.1-0.1,7.6c3.8,6.8,7.5,13.6,11.3,20.4
		c0.5,1.4,0,3,0.8,4.3c1.7,3.7,3.4,7.4,5.8,10.7c4.1,7,9.3,13.3,14.3,19.7c1.2,1.5,3,2.8,2.2,5.2c-2.2,2.1-4.9,1.7-7.5,1.4
		c-9.3-6.2-15.1-15.3-20.4-24.6c-6.2-10.8-11.8-21.9-20.1-31.3c-1.1-1.3-2-3.6-4.1-2.9c-1.8,0.7-1.2,2.9-1.2,4.5
		c0.2,9.6-0.7,19.3,0.6,28.8c0.3,2.5-0.6,3.4-2.9,3.5c-0.3,0-0.7,0-1,0c-3.5-0.1-7.8,1.1-10.2-0.5c-3.3-2.3,0.6-6.2,0.7-9.5
		c0-2.5,0.6-4.9,1-7.4c1.8,1.4,1,3.3,1.1,5.1c0,1.4,0,2.9,0,3.6c0,0.1,0.1-0.6,0.1-1.2c-0.1-2.6,0.3-5,1.1-7.5
		c0.7-1.8,0.5-3.8,0.5-5.7c1.9-14.8-0.2-29.6,0-44.4c-0.1-3.1,0.3-6.2-0.4-9.2c-0.2-1-0.1-2.1-0.3-3c0.9,15.5,0.2,31,0.4,46.4
		c0,1.2-0.1,2.3-0.6,3.4C373.4,354.9,372.9,355.2,372.3,355.1z"/>
	<path class="st9" d="M515.6,383.9c-4.8,0.1-9.6,0-14.4,0.2c-3.6,0.1-5.5-1.8-6.5-4.9c-1.5-4.6-1.7-9.5-1.7-14.3
		c-0.1-20.9,0-41.9-0.1-62.8c0-10-0.1-9.2,9.8-10.2c10.4-1.1,17.5,2.4,23.6,10.7c5.2,7.1,11.5,13.3,16.4,20.7
		c1.1,1.6,0.6,3.5,0.9,5.2c2.9,6.2,1.4,11.5-2.1,17.2c-5,8.4-9.8,17-15,25.3c-3,4.7-6.6,8.8-12.3,10.2c-0.4,0.1-1.2,0-1.3,0.3
		c-0.5,1,0.5,0.5,0.8,0.6C514.5,382.4,515.8,382.3,515.6,383.9z"/>
	<path class="st9" d="M300.2,375c3.6,9.1,3.6,9.1-6.1,9.1c-0.2,0-0.3,0-0.5,0c-3.1-0.1-6.8,0.8-9.3-0.6c-3.7-2,0.4-5.4,0.2-8.3
		c-0.6-8.8-3-17.3-4.7-25.9c-0.4-2-1.4-2.7-3.5-1.9c-6.7,2.4-13.4,4.7-20.2,7c-2.3,0.8-2.6,2.5-3.1,4.5c-1.3,6.4-0.5,13.5-6.2,18.3
		c-2.1,1.8-4.1,3.9-6.5,5.4c-3.8,2.5-5.8,1.4-5.9-3.3c0-2.8,0.6-5.6,0.9-8.4c0.4-0.3,0.9-0.3,1.3,0c0.3,0.4,0.5,0.8,0.6,1.3
		c0.1,1.4,0.2,2.9-0.4,4c1-1.2,0.3-2.9,0.5-4.4c0-0.7,0-1.4,0.2-2.1c5.9-16.6,10.4-33.7,18.7-49.4c1.2-2.4,2.5-4.7,3.9-6.9
		c1-1.6,2.6-2.9,2.9-4.9c-0.2-0.3-0.4-0.6-0.6-0.9c0.8-0.9,1.4-1.9,2.3-2.6c2.6-1.9,2.2-3.8,0.1-5.7c-0.6-0.6-1.2-1.1-1.8-1.8
		c-1.4-1.8-5.3-2.6-4.5-4.5c1.2-2.9,4.8-0.8,7.3-0.8c3.6-0.1,7.3,0.5,10.7,1.8c2.8,1.1,5,2.7,4.8,6.2c-0.3,6.1,1.6,11.9,2.8,17.8
		c0.6,2.8,1.3,5.6,2.1,8.4c1.1,6.2,2.7,12.3,3.9,18.5c1.2,6.6,2.4,13.3,3.8,19.9c1.2,5.9,0.9,11.2-4.7,15.2c6.5,1.3,7.3,0.9,9.2-4
		C298.8,375.3,299.3,374.7,300.2,375z"/>
	<path class="st9" d="M325.9,378.1c-18.5-7.9-28.6-27.6-25.5-49.9c1.7,0.1,1.7,1.5,2,2.6c0.2,1.3,0,2.6-0.1,3.9
		c-0.1,0.7-0.1,1.2,0,0.5c0,0,0.1-0.1,0.1-0.2c2.8-13.8,10.6-24.5,21.5-33.4c0.3,0-0.8-0.9-0.6-0.2c0,0.1-0.1,0.1-0.5,0.2
		c-0.6,0.2-1.3,0.3-2,0.1c-0.7-0.4-1.2-0.8-0.7-1.7c10.4-6.3,21.2-9.1,33.2-5.1c3.3,1.1,5.2,2.5,3.8,6.3c-0.9,2.4-1.2,5.1-1.9,8.1
		c-4-3.6-7.1-7.6-12.5-8.2c-9-0.9-15.7,2.6-19.9,10.4c-6.8,12.7-8.6,26.3-4,40c3.8,11.6,13.5,17.3,24.9,20c3.9,0.9,7.1-1.2,9.6-4.1
		c4.2-4.8,7.2-10.4,9.8-16.1c0.5-1,0.8-2.6,2.2-2.3c2,0.4,0.9,2.2,0.8,3.3c-0.5,2.9-1.3,5.8-2,8.7c-2.6,2.5-2.9,6-4.2,9.1
		c-4.6,9.7-6.3,10.7-18.3,9.9c-1.5-0.3-2.9-0.8-4.4-1.2C333.4,377.2,329.5,380.3,325.9,378.1z"/>
	<path class="st9" d="M468.7,330.2c2.3-1.7,3.6-4.1,5.1-6.7c1,5.3,0.9,10.2-1.9,14.9c-8.5,3.5-17.7,2.7-26.6,3.9
		c-0.7,13.3,8.3,25.5,21,28.4c4.2,0.9,7.7,0.1,10.3-3.8c3.2-4.9,5.5-10.2,7.8-15.5c0.4-1,0.5-2.7,2-2.4c2.1,0.5,0.7,2.1,0.5,3.3
		c-0.4,2.6-0.9,5.2-1.4,7.8c-1.1,0.2-1.5,1-1.8,2c-0.3,1.4-0.7,2.7-1.1,4c-0.3,0.8-0.5,1.6-0.8,2.3c-4.4,11.5-8.2,13.5-20.3,10.7
		c-2.6-0.5-5-2.1-7.8-1.2c-0.6,0.2-1.2,0.6-1.8,0.1c-12.6-8.2-19.6-19.7-21.1-34.6c-0.3-0.8-0.4-1.5,0-2.3c2-0.3,2,1.3,2.1,2.6
		c0.2,2.1,0,4.3,0.7,6.4c-0.1,0.7,0.8-0.3,0.2,0c-4.5,2.3,2.7-32.9,8.8-43.4c0.2-1.2,3-1.6,1.3-3.5c9-8.1,19.1-12.4,31.4-8.5
		c3.6,1.1,5.4,2.8,4,6.8c-0.8,2.3-0.8,4.9-1.3,7.8c-3.3-3-5.5-6.6-9.5-7.7c-6.5-1.8-12.9,0.7-16.8,6.8c-4.3,6.9-6.2,14.6-6.6,22.7
		c3.1,2.5,6.9,1.6,10.4,1.8c2.8,0,5.6,0.2,8.4,0C465.8,332.7,467.8,332.4,468.7,330.2z"/>
	<path class="st0" d="M190.7,369.8c-2.6,0.6-3.7-0.5-3.5-3.4c0.8-10.3-3.1-18.9-8.4-27.5c-9.1-14.7-19.8-27.8-33.4-38.6
		c-2.8-2.2-3.8-4.9-3.4-8.3c0.2-1.9,0.9-3.7,2.7-4.5c2.1-1,2.8,1.2,3.9,2.3c2.4,2.6,4.4,2.7,7.1,0c4-4,6.8-3.5,9.6,1.3
		c11.8,20.2,24.1,40.1,34.5,61.1c2.9,5.7,0.8,10.3-2.3,14.7C196,369.1,193.6,370,190.7,369.8z"/>
	<path class="st0" d="M164.6,401.1c7.9-5.2,15.5-2.4,23.2,0.8c1.7,0.7,3.5,1,5.8,1.6c-4,4.4-1.8,8.1,0.9,11.8
		c3.3,4.5,5.4,10,9.8,13.7c1.8,1.5,0.3,2.3-0.6,3.1c-7.7,8-14.5,16.8-20.9,27.1c-1.2-5.7-2.3-10.5-3.2-15.4
		c-2.7-14.5-11.9-25.4-19.9-37c-1.5-2.1-4.1-2.7-6.1-4.1c0.9-2.6,3-1,4.5-1.3C160.2,401.1,162.5,401.8,164.6,401.1z"/>
	<path class="st0" d="M331.6,351.4c-0.4-6.9,1.1-14.1,4.7-20.8c5.4-10,16.3-11.5,24.4-3.4c0.9,0.9,2.1,2.5,3,2.4
		c5.8-0.6,4.3,3.4,4.4,6.4c0,1.5-0.1,3,0,4.5c0.1,1.9,0,3.2-2.5,2.9c-3.2-0.4-4.6,2-5.7,4.6c-2.1,5.1-4.9,9.8-8,14.3
		c-1.9,2.8-4.4,3.7-7.7,3.5C334.7,365.1,331.6,361.8,331.6,351.4z"/>
	<path class="st0" d="M462.2,422.1C449.1,401,429.1,385,418.9,362c-1.7-3.7-2.4-6.1,1.6-8.4c2.1-1.2,3.9-3,6.1-4.8
		c3.8,14.7,12.4,26.4,20.8,38.1c9.6,13.4,23.4,19,39.9,18.4C478,409.5,469.6,414.9,462.2,422.1z"/>
	<path class="st12" d="M81.8,113.7c-12.6,29.9-11,59.1,3.8,87.8c1.2,2.3,2.1,4.7,3.2,7.2c-2.3,0.2-2.6-2.3-4.3-2.3
		c0,0,0.1,0.1,0.1,0.1c-1.6-2-2.7-4.3-4.5-6.2c-2.2-3.8-5.1-7.3-6.5-11.5c-9.4-20.1-10-40.5-2.1-61.2c0.1-0.5,0.1-1.1,0.2-1.6
		c1.6-2.7,2.7-5.8,4.6-8.4c1.4-1.8,2-4.1,3.2-6l0,0.1C81.8,110.8,82.3,111.7,81.8,113.7z"/>
	<path class="st13" d="M339,408c-2.1-5.8-6.7-6.4-11.9-6c-2.9,0.2-6.3,0.8-8.8-0.3c-2.5-1.2-0.7-5-1.8-7.5c-1.3-2.8-1.7-6-2.4-9
		c-0.5-1.2-0.7-2.3,1.2-2.2c6.9,8.1,14.7,14.9,24.9,18.4c2.6,0.9,1.6,2.1,0.8,3.5C339.8,405.6,341.7,408.2,339,408z"/>
	<path class="st14" d="M513.7,380c5.4-1.3,8.9-5.1,11.6-9.5c6.2-10.4,12.2-20.9,18.3-31.3c1-1.7,0.9-3.3,0.3-5.2
		c-0.6-1.9-2.1-3.7-1.3-6c4.2,1.8,5.4,4.5,4.8,11.3c-1.1,2.7-2.7,5.2-4.2,7.7c-0.5,1.5-1.3,3-2.2,4.3c-0.7,1.4-1.9,2.5-2.3,4.1
		c-0.2,2.2-1.4,3.9-2.6,5.7c-1.7,0.9-1.7,2.9-2.7,4.2c-0.7,1.3-1.3,2.8-2.1,4.1c-0.7,1.4-1.4,2.8-2.4,4.1c-2.1,2.9-4.2,5.8-7.6,7.3
		c-2.3,2.1-5.1,2-7.9,1.7c-0.8-0.1-1.8-0.1-1.6-1.2C511.9,380.4,513.1,380.6,513.7,380z"/>
	<path class="st15" d="M156.4,230.3c10.3-8.2,19.9-17.4,31.1-24.5c5.4-3.5,11.3-5.4,17.8-5.4c2.1-0.5,4.2-1,6.3,0.3
		c-0.3,1.9-2,1.4-3.1,1.7c-0.8,0-1.7,0.1-2.5,0.1c-5.1,2.2-10.9,2.9-15.6,6.1c-6.2,4.4-12.2,9.2-18.1,14c-1.2,1.4-2.9,2.2-4.3,3.3
		c-1.5,1.7-3.5,2.8-5.3,4.1c-1.4,0.9-2.7,2-4.5,2C157.1,231.9,156,231.7,156.4,230.3z"/>
	<path class="st16" d="M71.5,127.5c-0.8,7.2-3.5,14-4.1,21.3c-1,13,1.3,25.3,6.1,37.3c0.4,1.1,0.7,2.2,1.1,3.3
		c-0.1,0.4-0.4,0.7-0.9,0.9c-10.8-20.3-11.4-41.1-2.9-62.3C70.8,127.8,71.3,127.7,71.5,127.5z"/>
	<path class="st17" d="M436.9,403.9c-6-7.7-12.8-14.8-17.1-23.8c-0.4-0.9,0.2-1.2,0.9-1.5c1.5,0.2,2.3,1.5,3.3,2.5
		c0.3,0.3,0.5,0.6,0.8,0.8c1.6,2.6,2.9,5.5,5.2,7.7c0.9,1.2,1.9,2.3,2.9,3.4c0.3,0.3,0.6,0.7,0.9,1c1.8,2.2,3.1,4.9,5.3,6.8
		c1.6,1.4,3.2,2.8,4.7,4.3c0.7,1.2,2.4,1.9,2.2,3.7c-3.1,2-6.2,1.2-9.2,0.1c-1.2-0.4-2.8-0.9-2.8-2.4c0-1.6,1.8-0.7,2.7-1.3
		C437,404.9,437.1,404.4,436.9,403.9z"/>
	<path class="st18" d="M225.4,349c6.7,9.4,6.7,10.5-0.5,19.3c-4.9,6-10.8,10.8-18.4,13c-0.4-0.3-0.6-0.8-0.6-1.3
		c0.1-1.4,1.1-2.1,2.1-2.8c5.8-3.3,10.9-7.3,14.8-12.9c2.6-3.7,4.2-7.1,1.4-11.3c-0.5-0.7-0.6-1.5-0.6-2.4
		C223.8,349.7,224,348.7,225.4,349z"/>
	<path class="st19" d="M460.8,378c14.8,1.4,14.8,1.4,21-12.9c0.4-0.3,0.8-0.3,1.2,0c1,2-0.7,3.9-0.3,5.9c0,0.3,0,0.6-0.1,0.9
		c-1.4,1.8-1.3,4.2-2.6,6.1c-1.2,4-3.9,5.1-7.9,5c-4.5-0.1-8.8-1.1-13-2.5c-0.8-0.4-1.4-0.9-1.6-1.7
		C458.2,376.9,459.5,377.5,460.8,378z"/>
	<path class="st20" d="M125.7,336.1c-0.4,3.7-0.6,7.5-1.2,11.2c-0.5,2.8,0.2,5.2,1.3,7.6c0.7,0.5,1.4,1,1.7,1.9
		c0.6,1.4,1.3,2.7,1,4.3c-2.4,2.8-3.8,1.4-4.9-1.2c-0.7-1.5-1.5-3-2.6-4.2c-1.4-1.8-1.2-3.8-0.7-5.9c1.1-2.5,0.3-5.3,1.2-7.8
		c0.1-1,0.1-1.9,0.2-2.9c1.6-0.8,1.3-2.5,1.9-3.8c0.4-0.8,0.4-2.4,1.6-2C126.7,333.7,126,335,125.7,336.1z"/>
	<path class="st21" d="M220.3,190.5c-0.7,0.3-1.3,0.6-2,1c-1.7-1.1-3.6-1.5-5.4-2.3c-10.2-5.5-20.7-5.3-31.5-2.3
		c-2.1-0.1-4.4,1.6-6.4-0.5c11.6-7,23.5-6.5,35.6-1.6C214.1,186.1,217.4,187.9,220.3,190.5z"/>
	<path class="st22" d="M175.3,298.5c-4.1-6.6-8.2-13.1-12.3-19.8c-1.8-3-1.6-6.1,0.6-8.8c2.4-2.9,4.9-5.8,8.8-7c0,0,0.3,0.3,0.3,0.3
		c1.1,2.4-1.1,3.2-2.2,4.4c-4,4.2-4.7,7.6-2.3,13c1.7,3.9,4.1,7.5,6.3,11.2c1,1.7,2.2,3.3,1.8,5.5
		C176,297.9,175.7,298.3,175.3,298.5z"/>
	<path class="st23" d="M325.9,378.1c3.7,1.1,7.4-3.1,11.2-0.1c-1,1-2.1,0.6-2.4,0.6c2.2,0.3,5.2,1.1,8.3,1.4c1,0,2,0,2.9,0.1
		c2.5,0.6,5,0.9,7.6,0c2.6-0.4,2.7-4.5,5.8-4.1c0.3,0.9,0.5,1.9-0.3,2.7c-1.1,4.2-4,5.5-8,5.3C342.2,383.8,333.6,382.8,325.9,378.1z
		"/>
	<path class="st24" d="M238.3,370.2c0,0.5,0,1.1,0,1.6c-0.6,0.8-1.3,0.8-2,0.2c0-0.4-0.1-0.7-0.1-1.1c-0.7-2-0.7-4,0-6l0,0
		c0.9-3,1.5-6.1,1.9-9.3c1.9-9.8,5.2-19,10.1-27.7c0.8,0.3,1.3,0.8,1.5,1.7c-2,7.7-5.5,14.9-7.3,22.7
		C241.1,358.3,239.1,364.2,238.3,370.2z"/>
	<path class="st25" d="M122,366c-4,4.9-7.2,9.1-5.4,15.1c0.5,1.8-0.9,1.7-2.2,1.3c-2-0.7-2.6-2.3-2.9-4.2
		C110.8,372.6,114.8,367.5,122,366z"/>
	<path class="st26" d="M175,186.3c2.2-0.2,4.5-0.5,6.7-0.7c-0.1,1.4-1.1,2.1-2.2,2.5c-10.4,4.2-17.3,12.6-24.6,20.4
		c-0.4,0.2-0.9,0.3-1.4,0.1c-0.3-0.4-0.6-0.8-0.9-1.2c2-3.9,4.8-7.1,8-10c1.5-1.5,3.4-2.6,4.6-4.5C168,190,171.6,188.3,175,186.3z"
		/>
	<path class="st27" d="M492.6,402.8c1.5-3.5,2.9-6.9,4.5-10.7c2.1,3.3,4.1,6.5,6.5,10.2c-3.9,0.6-7.4,1.1-10.9,1.6
		C492.1,403.6,492.1,403.2,492.6,402.8z"/>
	<path class="st28" d="M86.6,285c0.3,0.7,0.6,1.5,0.9,2.2c1.5,1.4,0.7,3.1,0.3,4.6c-2,7.8-2.7,15.6,0.2,23.4c0.6,1.5,0.9,3.2,0,4.8
		c-0.5,0.5-1,0.5-1.5,0.2c-1.3-2.9-3.2-5.5-2.9-8.9c-0.9-1.6,0.2-3.5-0.8-5.2C82,298.8,84,291.9,86.6,285z"/>
	<path class="st29" d="M320,299.9c0.3,0.4,0.6,0.8,1,1.2c0.6,2.3-1.4,2.6-2.5,3.5c-5.5,4.4-10.6,9.2-13.7,15.8
		c-0.7,0.9-1.2,2.2-2.8,1.6C304.4,311.8,311,304.9,320,299.9z"/>
	<path class="st30" d="M445.2,342.3c1.4-2.2,3.6-1.1,5.4-1.1c6.6,0,13-0.8,18.8-4.2c1.9-1.1,2.3-0.2,2.4,1.4c-1.8,3-4.4,3.9-7.9,3.8
		C457.7,342,451.5,342.2,445.2,342.3z"/>
	<path class="st31" d="M418.9,302.3c-0.3-0.8-0.6-1.5-0.9-2.3c2.7,0.9,4.5,2.9,6,5.1c5.5,7.8,4.7,11.9-2,16.2
		c-0.7-0.2-1.2-0.7-1.4-1.5c0-0.8,0.3-1.6,0.9-2.2c4-4.3,1.8-8.1-0.9-11.8C420,304.6,418.5,303.9,418.9,302.3z"/>
	<path class="st32" d="M171.4,222.3c5.5-5.3,11.6-9.8,18-14c1-0.2,1.4,0.2,1.1,1.2c-6,4.7-12,9.3-17.9,14
		C171.9,223.4,171.5,223,171.4,222.3z"/>
	<path class="st33" d="M458.8,379.9c4.2,0.6,8.2,2.1,12.5,2.3c4.2,0.1,7-1.1,8.5-5c1-0.1,1.5,0.1,1.1,1.2c-0.7,4.5-3.4,6-7.7,5.8
		c-5.3-0.3-10.6-0.7-15.5-3.1C457.5,380.1,457.8,379.6,458.8,379.9z"/>
	<path class="st34" d="M206.3,379.9c0,0.5,0.1,1,0.1,1.5c-7.9,3.1-15.9,4.1-24,0.6c-0.1-1.1,0.6-1.5,1.4-1.7
		c5.1-0.5,10.3,1.5,15.4-0.1C201.6,379.9,203.9,378.3,206.3,379.9z"/>
	<path class="st35" d="M86.4,320.3c0.5,0,1-0.1,1.5-0.1c2.1,0.4,2.5,2.1,2.7,3.7c1.1,7.7-0.1,15.1-3.5,22.1
		c-0.3,0.6-0.9,0.9-1.6,1.1l-0.4,0c0,0-0.4,0-0.4,0c0.7-3,1.2-6.1,2.1-9C88.5,332.1,88.7,326.2,86.4,320.3z"/>
	<path class="st36" d="M224.3,277.2c-0.9-0.1-1.6-0.4-1.2-1.5c1.2-4.3-0.7-7.8-2.8-11.3c-0.4-1.2,0.1-1.9,1.2-2.4
		c1.3,0.9,2.9,1.6,3.6,3.2c-0.1,2,1.7,3.1,2,5C227.6,273.1,227.4,275.7,224.3,277.2z"/>
	<path class="st37" d="M183.5,381c-0.3,0.3-0.7,0.6-1,0.9c-3.3-0.3-6.3-1.2-9.2-2.8c2-1.8,3.9-2.3,6.7-1.3c5.3,2,11,1,16.5,1.1
		c-0.2,2.8-2.5,1.6-3.9,2C189.5,381.4,186.5,379.6,183.5,381z"/>
	<path class="st38" d="M175.3,298.5c0.1-0.5,0.2-1,0.3-1.5c3.7,0.7,3.4,4.7,5.5,6.8c1.6,2.4,2.7,5.1,4.4,7.5
		c0.3,0.3,0.5,0.5,0.8,0.8c0.6,1.6,1.1,3.3,2,4.8c0.7,1.4,1.6,2.8,1.8,4.4c-0.1,0.5-0.3,0.9-0.7,1.2
		C184.2,314.8,179.5,306.8,175.3,298.5z"/>
	<path class="st39" d="M546.5,340.1c0.5-4.6-0.1-8.9-4-12.1c-1-1.6,0.4-3.2,0-4.8c2.9,3.2,4.9,6.8,6.2,10.9c0.8,2.5,0.4,4.8-1.4,6.9
		C546.6,341.2,546.1,341,546.5,340.1z"/>
	<path class="st40" d="M436.9,403.9c2.2,3.3-2.5,0.9-2,3c3.4,1.2,6.8,3.5,10.9,1.1c0.3-0.4,0.6-0.4,0.9,0c0,0.7,1.8,1.1,0.4,2
		c-2.7,1-5.5-0.1-8.2,0.7c-3.7-0.4-6.7-2-9.3-4.5C431.6,404,434.9,406,436.9,403.9z"/>
	<path class="st41" d="M101.7,351.3c-0.3-0.7-0.6-1.4-0.8-2.2c1.4-5.3,3.3-10.5,3-16.1c1.1-1.2,0.5-2.7,0.8-4c0.5,0.1,1,0.1,1.3,0.6
		C108.5,334.4,106,347.5,101.7,351.3z"/>
	<path class="st42" d="M289.1,345.2c-1.9-6.2-3.3-12.5-4-19c-0.3-1.1,0.3-1.3,1.2-1.3c1.5,1.6,1.2,3.8,1.9,5.7
		c1.3,3.1,1.4,6.6,3.1,9.7l0,0.4c0.5,0.9,0,1.8-0.3,2.6C290.5,344.1,290,344.8,289.1,345.2z"/>
	<path class="st43" d="M468.7,330.2c0.7,0.2,2.6-0.3,1.2,1.4c-1.9,2.3-4.7,2.8-7.6,2.7c-2.1-0.1-4.3-0.1-6.4-0.2
		c-1.5-1.1-3.6,0.2-5.6-1.6c5.4-1.8,10.7,0,15.6-1.2C466.8,330.9,467.7,330.5,468.7,330.2z"/>
	<path class="st44" d="M190.5,209.6c-0.4-0.4-0.8-0.8-1.1-1.2c4.7-4.3,10.6-5,16.5-5.8c-0.6,2.7-3.2,2-4.8,2.8
		C197.6,206.8,194,208.1,190.5,209.6z"/>
	<path class="st45" d="M465.8,331.3c-4.5,2-9.4,0-14,1.1c0.9,1.7,3.2,0.2,4.1,1.7c-2.4-0.1-4.8,0.2-7.2-0.3
		c-1.5-0.3-3.8-0.2-3.7-2.8C451.9,331.1,458.8,331.2,465.8,331.3z"/>
	<path class="st46" d="M211.3,201.3c-1.8-1.7-4.1-0.5-6.1-1c5.7-1.5,11.6-1.4,17.4-1.1c2.1,0.1,4.3,0.2,6.4,0.2
		c-2.7,1.7-5.9,0.8-8.8,1.7c-1.7-0.2-3.5-1-5,0.5c-0.5,0.6-1.2,0.7-2,0.6C212.8,201.8,211.8,202.2,211.3,201.3z"/>
	<path class="st47" d="M287.4,331c-0.4-1.9-0.9-3.9-1.3-5.8c-2-2.3-1.7-5.4-2.8-8c-0.4-2.1-1-4.1-1.4-6.1c-0.2-1.3-1.5-3.2,1.1-3.9
		c1.8,7.2,3.5,14.4,5.3,21.6C288.4,329.7,289.4,331,287.4,331z"/>
	<path class="st48" d="M300.2,375c-0.4,0.4-0.8,0.8-1.1,1.2c-3.2-1.2-2.6-4.3-3.3-6.6c-0.8-2.7-1.8-5.4-1.6-8.2
		c0.3-1.1,0.4-2.3,2-2.2C297.5,364.4,299.5,369.5,300.2,375z"/>
	<path class="st49" d="M283.1,307.2c-2.1,3.6,1,6.7,1.1,10c-0.4,0.3-0.4,0.9-1,1c-1.5-5.9-4.3-11.7-1.8-18
		C282.5,302.3,282.7,304.8,283.1,307.2z"/>
	<path class="st50" d="M430.9,327.1c0.6-6.6,2.7-12.7,7-17.9c0.4,0.4,0.6,0.8,0.7,1.3c-1.7,5.7-3.4,11.4-6.3,16.7
		C431.8,327.5,431.3,327.5,430.9,327.1z"/>
	<path class="st51" d="M249,329.1c-0.3-0.4-0.5-0.7-0.8-1.1c2.2-5.3,5.1-10.2,9.2-14.3c0.3,0.4,0.5,0.9,0.6,1.4
		C255.3,320,253.6,325.5,249,329.1z"/>
	<path class="st0" d="M461.6,363c4.4,0,7.7,0,11,0C470.5,366.5,468.4,366.6,461.6,363z"/>
	<path class="st52" d="M359,369c0.9-2.4,1.8-4.8,2.7-7.2c0.5-1.3,1.2-1.3,2.2-0.7c-0.1,2.5-0.6,4.8-1.7,7.1c-1.6,0-0.2,1.7-1.2,2.1
		C360,370.5,359.4,369.8,359,369z"/>
	<path class="st53" d="M421,320.2c0.3,0.4,0.6,0.8,1,1.1c-2.5,3.2-5.7,5.6-9,7.8c-0.6-0.6-0.8-1.3-0.7-2
		C414.6,324.1,416.5,320.6,421,320.2z"/>
	<path class="st54" d="M513.7,380c0.2,0.7-2.7,1.5,0,2c2.9,0.5,5.5-0.6,8-2c0.6,0.3,0.6,0.7,0.1,1.1c-1.3,2.6-3.9,2.3-6.1,2.7
		c-1.7-1.7-4.1-0.3-6.2-1.2C510,380.3,511.7,379.9,513.7,380z"/>
	<path class="st55" d="M292.2,346.1c2.2,3.2,2.4,7,3.1,10.7c0.5,1.1-0.2,1.4-1.1,1.6c-3.4-3.4-3.3-7.7-3.4-12
		C291.2,345.8,291.7,345.7,292.2,346.1z"/>
	<path class="st56" d="M158.5,231.4c1.3-0.7,2.2-2.2,3.9-2.1c1-0.2,1.4,0.2,1.1,1.2c-2.3,2.2-4.9,3.9-8.1,4.8
		c-0.4-0.4-0.7-0.7-1.1-1.1C154.4,231.4,157.2,232.4,158.5,231.4z"/>
	<path class="st57" d="M164.6,401.1c-3.4,2.4-7.5-0.2-10.9,1.7c-2.3-0.2-4.7-0.5-7-0.7c0-0.3,0.1-0.6,0.1-1
		C152.7,401.1,158.6,401.1,164.6,401.1z"/>
	<path class="st58" d="M73.7,190.4c0.3-0.3,0.6-0.6,0.9-0.9c2.1,3.6,4.1,7.2,6.2,10.8c0.4,0.6,0.4,1-0.2,1.5
		C77.6,198.3,75.2,194.6,73.7,190.4z"/>
	<path class="st59" d="M125.7,336.1c-0.1-0.6-0.1-1.2-0.3-2.2c-2.1,1.3-0.8,4.8-3.7,5.1c0.9-3.1,1.4-6.4,3.5-9
		C127.5,331.9,126.9,334,125.7,336.1z"/>
	<path class="st60" d="M413.8,369.1c-1.7-1.5-0.4-2.9,0.3-4.2c2.2,2.3,3.6,5.1,5,7.9c0.5,0.8,0,1.2-0.7,1.6
		C415.5,373.7,415.9,370.3,413.8,369.1z"/>
	<path class="st61" d="M372,373.1c-0.1-2.1-0.1-4.2-0.2-6.3c-0.1-3.9-0.3-7.9,0.5-11.7c0.2,0,0.5,0,0.7,0c2.4,4,1.1,8.2,1,12.3
		c0,1.8-0.6,3.4-0.6,5.2C373.1,373.2,372.6,373.4,372,373.1z"/>
	<path class="st62" d="M402.8,336.9c-1.1-0.9-2.2-1.9,0.1-2.7c1.5-0.9,2.8-2.2,4.1-3.4c0.6-0.4,1.3-0.4,2-0.3
		c0.5,0.2,0.8,0.4,1.1,0.8C408,333.4,405.8,335.6,402.8,336.9z"/>
	<path class="st63" d="M225.4,349c-0.9,0.4-1,1.1-1.1,2c-2.9,0-2.8-2.7-3.8-4.3c-0.2-0.7-0.3-1.4-0.5-2.1c0.1-0.2,0.3-0.4,0.4-0.6
		c0.3-0.6,0.6-1.3,0.9-1.9C223.2,344.1,224.5,346.5,225.4,349z"/>
	<path class="st64" d="M418,374c0.4-0.4,0.7-0.9,1.1-1.3c2,2.6,4.3,5.1,4.9,8.4c-1.4-0.2-2.5-0.8-3.1-2.1
		C419,377.9,417.6,376.5,418,374z"/>
	<path class="st65" d="M224.3,277.2c2.2-2.3,2.4-5.1,1.9-8c-0.4-0.9,0.1-1.1,0.9-0.9c2.9,4.4,1.4,7.5-2.7,10
		C224.4,278,224.3,277.6,224.3,277.2z"/>
	<path class="st66" d="M302,322.1c0.7-0.7,1.5-1.3,2.2-2c1.8,3.9-0.9,7.2-1.6,10.7c-0.4,0.5-0.9,0.6-1.4,0.3c-0.1-1.1,0.2-2.2-0.8-3
		C300.6,326.1,300.8,324,302,322.1z"/>
	<path class="st67" d="M287.4,331c0.3-0.7,0.7-1.5,1-2.2c1.6,3.7,2.5,7.5,2.9,11.5C288,338,289,333.9,287.4,331z"/>
	<path class="st68" d="M484.8,328.9c3.3,1,5.5,2.7,3.6,7c-1.8-1.6-2.9-3.5-4-5.4C484.2,329.8,484.3,329.3,484.8,328.9z"/>
	<path class="st69" d="M521.7,381.2c0-0.4-0.1-0.8-0.1-1.1c3.1-1.6,4.4-4.9,6.9-7.1c0.7,0.1,0.8,0.6,1,1.1
		C527.9,377.4,525.3,379.9,521.7,381.2z"/>
	<path class="st70" d="M98.4,318.3c0.7,2,2.1,3.7,2.2,5.9c-1.8,1.4-0.6,3.4-1.1,5.1c-0.7-2.7-1.3-5.4-2-8
		C97.3,320.1,96.1,318.7,98.4,318.3z"/>
	<path class="st71" d="M81.8,113.7c-0.2-1.3-0.8-2.1-2.2-2.1c0.5-1,1.1-2,1.6-3.1c0.9-0.4,1.7-0.7,3-1.3
		C84,109.8,83.4,111.9,81.8,113.7z"/>
	<path class="st72" d="M163.6,230.5c-0.4-0.4-0.7-0.8-1.1-1.2c1.2-1.9,3.3-2.7,5-3.9c0.7,0.1,1.2,0.5,1.4,1.2
		C167.3,228.3,165.7,229.7,163.6,230.5z"/>
	<path class="st73" d="M429.8,390.2c-2.5-2.2-4.8-4.6-5.1-8.2c2.5,1.6,3.6,4.4,5.3,6.7C430.4,389.3,430.3,389.7,429.8,390.2z"/>
	<path class="st74" d="M257.3,315.2c0-0.5,0-1,0-1.5c1.7-2,3.4-4.1,5.1-6.1c0.6-0.1,1.2-0.1,1.8-0.2c-0.2,2.4-2.4,3.5-3.5,5.3
		C259.8,313.8,259.4,315.7,257.3,315.2z"/>
	<path class="st75" d="M126.6,357c-0.3-0.7-0.6-1.4-0.9-2.1c2.3-2.9-0.9-7,2-9.8c0,2.9,0,5.8,0,8.7C127.8,355.1,129,356.7,126.6,357
		z"/>
	<path class="st76" d="M76.6,117.5c-1.6,2.8-2,6.3-4.9,8.4c1-3.5,2.4-6.7,4.7-9.5C77.1,116.7,77.1,117.1,76.6,117.5z"/>
	<path class="st50" d="M431,341.1c-0.1,0.8-0.2,1.5-0.3,2.3c-1.2-4.5-1.2-9,0-13.5c1.5,1,1.4,2.6,1.6,4.2
		C432.2,336.5,432.7,339,431,341.1z"/>
	<path class="st77" d="M120.6,350.1c-0.3,2.1,0.6,4,1.1,6c-0.4,0.5-0.8,0.5-1.3,0.1c-3.5-3.1-0.4-6.2,0.1-9.3
		C121.3,347.9,121.2,349,120.6,350.1z"/>
	<path class="st78" d="M439.1,400.9c-2.9-1.4-4.6-3.7-5.3-6.8C436.3,395.7,438.2,398,439.1,400.9z"/>
	<path class="st79" d="M546.5,340.1c0.3,0.3,0.6,0.6,0.9,1c-0.9,2.2-1.9,4.3-3.5,6.1c-0.4,0.5-0.8,0.5-1.2-0.1
		C543.9,344.7,545.2,342.4,546.5,340.1z"/>
	<path class="st80" d="M126.6,357c1.2-0.8,0.8-2.1,1-3.2c0.5,2.4,3,4.6,0.8,7.3C127.8,359.8,127.2,358.4,126.6,357z"/>
	<path class="st81" d="M458.8,379.9c-0.3,0.4-0.7,0.8-1,1.1c-2.4-0.3-4.4-1.2-6-3c0.3-0.3,0.7-0.6,1-1c2.1-0.4,3.6,0.7,5,2
		C458.2,379.3,458.5,379.6,458.8,379.9z"/>
	<path class="st82" d="M168.8,226.6c-0.4-0.4-0.9-0.8-1.4-1.2c1.3-1,2.6-2,4-3.1c0.4,0.4,0.8,0.8,1.2,1.2
		C171.3,224.6,170,225.6,168.8,226.6z"/>
	<path class="st83" d="M189.3,322.5c0-0.5,0.1-0.9,0.1-1.4c0.3-0.4,0.5-1,1.2-1.1c0.9,1.3,2.3,2.5,1.4,4.4c-0.1,0.2-1.2-0.2-1.8-0.3
		C189.8,323.6,189.6,323,189.3,322.5z"/>
	<path class="st84" d="M238.2,355.7c0.4,3.3-0.1,6.4-1.9,9.3C236.3,361.8,236.9,358.7,238.2,355.7z"/>
	<path class="st85" d="M480.9,378.3c-0.4-0.4-0.7-0.8-1.1-1.2c1.3-1.5-0.1-4.5,2.8-5.1C482.7,374.3,482.1,376.4,480.9,378.3z"/>
	<path class="st86" d="M443.7,303c3.2,0.9,1.1,2,0.1,3.1c-1.1,0.2-1.8,2-3.3,1c-0.1-0.4,0-0.8,0.2-1.2
		C441.7,304.9,442.7,304,443.7,303z"/>
	<path class="st87" d="M358.9,378.7c0-1,0-1.9,0.1-2.9c-1.4-1.9-0.6-3.2,1.4-4c0.2,0.1,0.5,0.2,0.7,0.3
		C361,374.5,360.7,376.9,358.9,378.7z"/>
	<path class="st88" d="M482.7,371c-1.6-2,0.7-4,0-6c0.3-0.7,0.9-1.1,1.7-0.9C484.4,366.6,483.9,368.9,482.7,371z"/>
	<path class="st89" d="M80.5,201.7c0.1-0.5,0.1-1,0.2-1.5c1.7,1.8,3.4,3.6,3.9,6.2C82.4,205.6,81.6,203.6,80.5,201.7z"/>
	<path class="st90" d="M484.5,364.1c-0.6,0.3-1.1,0.6-1.7,0.9c-0.3,0-0.6,0-1,0c0.4-1.3,0.7-2.7,1.1-4c1.2-0.7,2-0.7,1.9,1
		C484.7,362.8,484.6,363.5,484.5,364.1z"/>
	<path class="st91" d="M221.5,262c-0.4,0.8-0.8,1.6-1.2,2.4c-1.6-0.9-2.2-2.6-2.9-4.1c1.7-1.3,2.7,0.4,3.9,1.1
		C221.4,261.5,221.5,261.8,221.5,262z"/>
	<path class="st92" d="M484.8,328.9c-0.1,0.5-0.2,1-0.3,1.5c-1.6-1.2-2.5-2.9-3.6-5.2C483,326,483.9,327.4,484.8,328.9z"/>
	<path class="st93" d="M438.9,410.7c2.6-1.5,5.4-0.4,8.2-0.7C444.5,412.3,441.7,411.3,438.9,410.7z"/>
	<path class="st94" d="M410.2,331.2c-0.4,0-0.9-0.1-1.3-0.1c-0.5-1,0.1-1.7,0.7-2.4c0.9-0.9,1.7-2.1,3.4-1.7c0,0.7,0,1.4,0,2.2
		C412,329.8,411.1,330.5,410.2,331.2z"/>
	<path class="st95" d="M532.7,365.1c0.8-1.6,1.1-3.6,3.4-4c-0.3,1.9-1,3.7-2.3,5.2C533.1,366.2,533,365.5,532.7,365.1z"/>
	<path class="st96" d="M532.7,365.1c0.4,0.4,0.7,0.8,1.1,1.2c-0.4,1.5-0.9,2.9-2,3.9c-0.6-0.1-0.8-0.7-1-1.1
		C531.4,367.7,532,366.4,532.7,365.1z"/>
	<path class="st97" d="M530.7,369c0.3,0.4,0.7,0.8,1,1.1c-0.3,1.5-1.2,2.7-2.2,3.8c-0.3-0.4-0.7-0.7-1-1.1
		C529.2,371.6,530,370.3,530.7,369z"/>
	<path class="st98" d="M165.3,193c-0.7,2.4-2.2,3.9-4.6,4.5C161.8,195.6,163.4,194.1,165.3,193z"/>
	<path class="st99" d="M221.2,261.3c-1.3-0.4-2.6-0.7-3.9-1.1c-1.1-0.8,0-1.5,0.2-2.2C219.2,258.6,220.6,259.5,221.2,261.3z"/>
	<path class="st100" d="M429.8,390.2c0.1-0.5,0.1-1,0.2-1.5c1.3,1.2,2.7,2.3,2.8,4.4C431.1,392.9,430,392,429.8,390.2z"/>
	<path class="st101" d="M118.2,402.1c-0.9,0-1.7-0.2-1.6-1.3c0.1-0.9,1-1.3,1.8-1.4c0.8-0.1,1.1,0.5,1.2,1.2
		C119.8,401.7,119.2,402.1,118.2,402.1z"/>
	<path class="st102" d="M339,408c1.7-0.4,0.5-2.6,1.9-3.2c0,1.1,0.1,2.2,0.1,3.3c0,0.7,0.5,1.9-0.6,1.9
		C339.4,410.1,339,409.1,339,408z"/>
	<path class="st103" d="M76.6,117.5c-0.1-0.4-0.1-0.8-0.2-1.2c0.7-1.9,1.5-3.6,3.1-4.8C79.8,114.1,78,115.7,76.6,117.5z"/>
	<path class="st104" d="M120.6,350.1c0-1.1-0.1-2.2-0.1-3.2c0.1-1.7-0.2-3.4,1.1-4.9C121.2,344.7,122.5,347.6,120.6,350.1z"/>
	<path class="st39" d="M292.2,346.1c-0.3,0-0.7,0-1,0c-1.1-0.7-1.5-1.7-1.1-3c0.4-0.8,0.7-1.6,1.1-2.5
		C292.5,342.3,292.4,344.2,292.2,346.1z"/>
	<path class="st105" d="M211.3,201.3c0.7,0.3,1.4,0.6,2.1,1c-1.7,0-3.3,1.2-5,0.1C209.1,201.2,210.3,201.6,211.3,201.3z"/>
	<path class="st106" d="M542.7,347.1c0.4,0,0.8,0,1.2,0.1c-0.9,1.6-1.7,3.2-2.6,4.8c-0.7,0-1.3,0-0.7-0.9
		C541.3,349.7,542,348.4,542.7,347.1z"/>
	<path class="st9" d="M431,334.1c-0.1-1.4-0.2-2.8-0.3-4.2c0.1-0.9,0.1-1.8,0.2-2.7c0.3,0,0.6,0,0.9,0
		C433.4,329.7,434.4,332.2,431,334.1z"/>
	<path class="st107" d="M312.9,382.2c-0.9-1-1-2.3-1-3.7c1.6,0.2,1.9,1.4,2.3,2.5C314.1,381.6,313.6,382.1,312.9,382.2z"/>
	<path class="st108" d="M375.1,400.3c-0.4,2-1.2,1.9-2,1.9c-0.6,0-1.6-0.1-1.3-0.8c0.3-0.7,1.3-1.3,2.1-1.6
		C374.4,399.8,375.1,400.3,375.1,400.3z"/>
	<path class="st109" d="M227.1,268.4c-0.3,0.3-0.6,0.6-0.9,0.9c-0.9-1.2-2.5-2.2-1.1-4C225.8,266.3,226.4,267.3,227.1,268.4z"/>
	<path class="st110" d="M236.3,365c0,2,0,4,0,6c-0.3,0-0.6,0-1,0C235.3,369,235.1,366.9,236.3,365z"/>
	<path class="st111" d="M440.7,305.9c0,0.4,0,0.8,0,1.2c0.6,2.4-0.8,3.1-2.7,3.4c-0.1-0.4-0.1-0.8-0.2-1.2
		C438.5,307.8,439.3,306.6,440.7,305.9z"/>
	<path class="st112" d="M133.5,334.1c0.7-0.9,2.1-2.1,2.5-1.5c1.1,1.5-0.6,2.4-1.7,3.2C134.1,335.3,133.8,334.7,133.5,334.1z"/>
	<path class="st113" d="M540.6,351.1c0.2,0.3,0.5,0.6,0.7,0.9c-0.5,1.4-1.1,2.8-2.6,3.4C538.6,353.7,539.3,352.2,540.6,351.1z"/>
	<path class="st114" d="M291.1,563.6c-0.4,0-0.8,0-1.1,0c-0.5-0.9-1-1.7-1.7-2.9C290.6,560.8,291,562.1,291.1,563.6z"/>
	<path class="st115" d="M484.8,362.1c-0.4-0.8-1.1-1-1.9-1c0.7-0.8,0.4-3.9,2.6-1C485.7,360.9,485.4,361.6,484.8,362.1z"/>
	<path class="st116" d="M142.5,360.2c1.2,0,2.1,0.3,2.6,1.5c-1.2,0.8-2.4,0.4-3.6,0.2C141.8,361.3,142.1,360.7,142.5,360.2z"/>
	<path class="st117" d="M312.9,382.2c0.4-0.4,0.9-0.8,1.3-1.3c0.3,0.7,0.7,1.3,1,2c-1,0.4-0.9,1.5-1.2,2.2
		C313.6,384.2,313.3,383.2,312.9,382.2z"/>
	<path class="st118" d="M120.4,356.2c0.4,0,0.9-0.1,1.3-0.1c1.6,0.8,2.1,2.2,2,3.8C122,359.1,121.5,357.3,120.4,356.2z"/>
	<path class="st119" d="M294.2,358.1c0.4-0.4,0.8-0.9,1.1-1.3c0.2,0.8,0.5,1.6,0.7,2.3c-0.8,0.5-0.9,1.2-0.9,2
		C293,360.6,293.3,359.4,294.2,358.1z"/>
	<path class="st120" d="M122.5,313.1c0.6-0.8,1.6-1.7,2.3-1.3c1,0.6,0.4,1.6-0.2,2.4C123.9,313.9,123.2,313.5,122.5,313.1z"/>
	<path class="st121" d="M361,370c0.5-0.5-1-2.5,1.3-1.8c-0.2,1.4-0.1,2.8-1.2,3.9c0,0-0.1-0.1-0.1-0.1
		C360.4,371.3,360.4,370.7,361,370z"/>
	<path class="st122" d="M215.4,201.7c1.5-2,3.2-1.6,5-0.5C218.7,201.4,217,201.6,215.4,201.7z"/>
	<path class="st35" d="M82.8,306.2c1.5,1.5,0.9,3.4,0.8,5.2C82.5,309.8,82.4,308,82.8,306.2z"/>
	<path class="st123" d="M492.6,402.8c0,0.4,0.1,0.7,0.1,1.1c-1.1,0.8-2.2,1.5-3.9,0.6C490.2,403.9,491.4,403.3,492.6,402.8z"/>
	<path class="st124" d="M446.7,408c-0.3,0-0.6,0-0.9,0c-1.2-0.5-1.9-1.4-2-2.8C445.2,405.7,446.3,406.5,446.7,408z"/>
	<path class="st12" d="M154.5,208.4c6.8-10.3,16-17.8,27.3-22.7c11.3-3.4,22.2-3.5,32.6,2.8c-0.9,2.7-2.8,1.4-4.4,1
		c-8.7-2.2-17.2-1.6-25.5,1.8c-11.2,4.1-20.4,11.3-29.1,19C153.8,210.2,153.8,209.4,154.5,208.4z"/>
	<path class="st125" d="M85.5,347.1c3-8.8,6.5-17.5,2.4-26.9c-4.6-10.9-4.1-21.9-0.5-33c0.8-2,1.5-3.9,2.3-5.9c1.9-0.1,1.4,1,1,2
		c-0.3,1.8-0.5,3.6-0.9,5.4c-2.1,9.8-2.4,19.3,1.5,29.1c4.7,11.5,0.2,22.8-3.8,33.7c-0.6,1.5-1.3,3-1.9,4.5c-1.9,0.5-1.1-1.4-1.8-2
		C84.3,351.7,85.9,349.7,85.5,347.1z"/>
	<path class="st126" d="M221.3,346.2c1,1.6,2.1,3.2,3.1,4.8c4.2,5.6,2.6,10.3-1.6,15.4c-4.1,4.9-8.6,9-14.4,11.6
		c-2,1-4.2,1.6-6.3,2.2c-1.2,0.3-3.3,1.5-3.7-1.3c13-5.8,20.5-15.6,21.9-29.8C220.1,348,218.8,346.5,221.3,346.2z"/>
	<path class="st127" d="M180.2,304.3c-1.6-2.4-3.1-4.9-4.7-7.3c-2.5-4.5-5-8.9-7.4-13.4c-4.8-9-4.3-11.5,3.1-18.3
		c0.6-0.5,0.8-1.3,1.3-2c0.9-0.1,1.7-0.2,2.6-0.3c1.2-0.2,1.7,0.3,1.5,1.5c-7.3,6.7-7.1,14-2.3,22.2c2.9,4.9,4.7,10.4,7.1,15.7
		C182.2,303.7,181.9,304.5,180.2,304.3z"/>
	<path class="st128" d="M168,338.1c3.9,11.8,3.3,23-4.8,32.7c-5.6,6.8-13.4,7.7-22,5.8C165.4,374.1,168.1,357.2,168,338.1z"/>
	<path class="st129" d="M104.2,218.5c0.2,0-0.7,0-1.7,0c-3.7-0.1-4.2-1.8-2.1-4.6c1.5-2,2.9-4,4.6-5.8c2-2.1,4.6-2.7,7.3-1.5
		c2.7,1.3,4.2,3.7,5.1,6.4c0.5,1.7-0.8,2.4-1.9,3C112.3,218,109,218.8,104.2,218.5z"/>
	<path class="st130" d="M146.6,230.7c-0.1,1,0,2-0.2,3c-0.2,1.1-0.3,2.5-1.4,2.9c-1.2,0.4-2-0.9-2.8-1.7c-2.8-2.7-4.7-5.9-5.7-9.7
		c-0.6-2.6,0.2-4.2,2.4-5.3c2.3-1.2,3.8,0.4,5,2C145.9,224.4,146.7,227.4,146.6,230.7z"/>
	<path class="st131" d="M101.7,351.3c2.7-7.2,5.8-14.4,2.9-22.3c-0.1-0.9-0.1-1.8-0.2-2.6c-0.2-1-0.9-2.2,1.1-2.2
		c5.3,8.9,2.4,17.6-0.6,26.3c-1.2,3.6-3,7-4.5,10.4c-1.7,0-1.4-0.9-0.9-1.9C100.3,356.4,101,353.9,101.7,351.3z"/>
	<path class="st132" d="M184.4,191.3c6.4-3.9,13.4-4.2,20.6-3.4c3.1,0.3,6,2.7,9.3,0.7c1.6,0.6,3.3,1,4,3c-3.9,0.3-7.4-1.4-11.1-2
		C199.5,188.1,191.9,189.4,184.4,191.3z"/>
	<path class="st133" d="M130,221.2c-0.1,2.2-1.9,2.7-3.1,2.8c-2.6,0.3-3.2-2-3.7-3.9c-0.5-2.2,1.2-2.4,2.7-2.4
		C128.3,217.7,129.2,219.6,130,221.2z"/>
	<path class="st134" d="M180.2,304.3c0.8-0.4,1.1-1.1,1.2-1.9c2.2,2.6,3.8,5.4,4.1,8.9C182.3,310,181.7,306.8,180.2,304.3z"/>
	<path class="st135" d="M198.4,379c3.6,2.7,6.6-1.6,10-0.9c-0.7,0.6-1.4,1.3-2,1.9c-2.3,0.4-4.6,0.8-6.9,1.1c-2.4,0.3-5,1.7-7-1
		c1.3-0.2,2.9,0.4,3.9-1C197,379,197.7,379,198.4,379z"/>
	<path class="st136" d="M83.8,354.1c0.6,0.7,1.2,1.3,1.8,2c-0.7,1.8-1.3,3.7-2.7,5.2c-0.5,0.5-0.9,0.4-1.2-0.2
		C82.4,358.7,83.1,356.4,83.8,354.1z"/>
	<path class="st137" d="M105.5,324.2c-0.9,0.5-0.9,1.4-1.1,2.2c-0.8-2.2-1.7-4.5-2.8-7.4C104.8,320.1,104.7,322.4,105.5,324.2z"/>
	<path class="st138" d="M158.5,231.4c-1.4,1-2.7,1.9-4.1,2.9c-0.6,0-1.5,0.3-1.9-0.1c-1.1-1,0.2-1.3,0.7-1.6c1-0.8,2.1-1.5,3.2-2.3
		C156.8,231.2,157.6,231.3,158.5,231.4z"/>
	<path class="st139" d="M176.6,264.6c-0.5-0.5-1-1-1.5-1.5c1.2-1.4,2.6-2.3,4.9-2.5C179.3,262.5,178.1,263.6,176.6,264.6z"/>
	<path class="st140" d="M95.4,315.4c-1-1.7-1.6-3.4-1.7-5.8c1.9,0.8,2.1,2.3,2.7,3.6C96.1,314,96.5,315,95.4,315.4z"/>
	<path class="st141" d="M81.7,361c0.4,0.1,0.8,0.1,1.2,0.2c-0.1,1.9-0.6,3.5-2.9,4.4C79.9,363.7,80.9,362.4,81.7,361z"/>
	<path class="st142" d="M190.6,320c-0.4,0.4-0.8,0.7-1.2,1.1c-0.7-1.3-1.3-2.6-2-4c0.3-0.4,0.5-1.1,1.2-1.1
		C189.2,317.4,189.9,318.7,190.6,320z"/>
	<path class="st143" d="M96.4,368.7c-0.5-2.7,0-3.7,1.5-4.4C98.9,366,97.5,366.7,96.4,368.7z"/>
	<path class="st144" d="M188.6,316c-0.4,0.4-0.8,0.8-1.2,1.1c-0.7-1.6-2.5-3-1.2-5.1C187.8,312.9,188,314.6,188.6,316z"/>
	<path class="st145" d="M90.7,283.3c-0.3-0.7-0.7-1.3-1-2c0.4-1.1,0.7-2.3,1.4-4.1C92,279.9,91.8,281.7,90.7,283.3z"/>
	<path class="st146" d="M95.4,315.4c0.3-0.7,0.7-1.4,1-2.2c0.4,1,0.8,1.9,1.2,2.9c-0.6,0.6-0.1,1.8-1.1,2.2
		C96.1,317.4,95.8,316.4,95.4,315.4z"/>
	<path class="st147" d="M219.3,345.2c-1.1-1.3-1.4-2.8-1.7-4.5c1.9,0.6,2,2.3,2.8,3.4c0,0-0.1,0.1-0.1,0.1
		C220,344.5,219.9,345.1,219.3,345.2z"/>
	<path class="st148" d="M154.5,208.4c0.3,0.6,0.6,1.3,0.8,1.9c-0.3,1.2-1.1,2.4-2.2,1.6c-1.6-1,0.5-2.1,0.5-3.3
		C153.9,208.6,154.2,208.5,154.5,208.4z"/>
	<path class="st149" d="M96.5,318.3c0.1-0.9,0.2-1.8,1.1-2.2c0.3,0.7,0.5,1.4,0.8,2.1c-1.1,0.7-0.7,2-0.9,3
		C97.2,320.3,96.8,319.3,96.5,318.3z"/>
	<path class="st150" d="M99.6,359c0.3,0.6,0.6,1.3,0.9,1.9c-0.4,1-0.9,2.8-2,1.8C97.6,362,98.5,360.1,99.6,359z"/>
	<path class="st151" d="M219.3,345.2c0.3-0.3,0.7-0.7,1-1c0.3,0.7,0.6,1.4,0.9,2.1c-1.2,0.7-0.8,1.9-1,3
		C219.1,348.1,219.4,346.5,219.3,345.2z"/>
	<path class="st1" d="M191.6,513.7c3.2-25.6,10.8-49.1,28.8-69.7c2.2,8.3,4.2,15.5,6.2,22.8c2.4,9,4.9,17.9,7.3,26.9
		c0.6,2.1,1.2,3.9-1.9,5.1c-12.9,4.8-25.7,9.9-38.5,14.9C193.1,513.9,192.5,513.7,191.6,513.7z"/>
	<path class="st152" d="M384.7,320.7c0-4.6,0-9.3,0-13.9c0-1.4-0.4-2.9,1.7-3.6c7.6-2.7,21.8,4.4,23.7,12.1c0.7,2.8-0.7,5.2-2.4,7.3
		c-5.3,7-12.8,11.5-20.1,16c-2.1,1.3-3,0.3-2.9-1.9C384.7,331.3,384.7,326,384.7,320.7z"/>
	<path class="st153" d="M372.8,372.8c0.1-1.6,0.2-3.2,0.3-4.8c0.9-1.7,0.4-3.6,0.4-5.4c0-18.6,0-37.2,0.1-55.8
		c0-1.5-1.3-3.7,1.3-4.6c0.1,1.6,0.2,3.1,0.2,4.7c0.9,3-0.3,6.2,0.7,9.2c0.4,15.3,1.5,30.6,0,45.9c-0.9,1.7,0,3.6-0.7,5.3
		c-0.4,2.5-0.8,5.1-1.2,7.6C372,375.1,372.6,373.8,372.8,372.8z"/>
	<path class="st17" d="M412.9,326.9c-1,0.7-2,1.5-2.9,2.2c-1,0.3-1.3-0.1-1-1c2.6-2.8,5.2-5.6,7.8-8.3c3.8-3.9,5.5-8.3,3-13.6
		c-0.2-1,0.2-1.3,1.2-1.1c5.6,5.9,5.6,7.8,0,15C418.3,322.4,415.6,324.7,412.9,326.9z"/>
	<path class="st154" d="M374.9,302.2c-1.5,1.5-0.8,3.5-0.9,5.2c-0.1,18.3,0,36.6-0.1,54.8c0,1.9,0.7,4-0.9,5.7c0-4.3,0-8.6,0-12.9
		c0-18.8,0-37.5,0-57C375.4,299.7,374.9,301,374.9,302.2z"/>
	<path class="st155" d="M418,374c1,1.7,1.9,3.3,2.9,5c-0.4,0.4-0.7,0.8-1.1,1.1c-3.1-3.1-4.4-7.2-6-11.1
		C416.3,369.7,416.7,372.2,418,374z"/>
	<path class="st154" d="M375.9,316.1c-1.7-3-0.7-6.1-0.7-9.2C376.4,309.9,376,313,375.9,316.1z"/>
	<path class="st156" d="M372.8,372.8c0.4,0.7,0.8,1.4,1.2,2.2c0,1.3-0.2,2.6-1.6,3.3c-1-1.8-0.1-3.5-0.3-5.2
		C372.3,373,372.5,372.9,372.8,372.8z"/>
	<path class="st157" d="M408.9,328.1c0.3,0.3,0.7,0.7,1,1c-0.4,0.6-0.7,1.3-1.1,1.9c-0.6,0-1.3,0-1.9,0.1c-0.3,0.4-0.6,0.4-0.9,0
		C406.6,329.8,407.6,328.8,408.9,328.1z"/>
	<path class="st158" d="M420.9,305.1c-0.4,0.4-0.8,0.8-1.2,1.1c-0.8-1.2-2.7-2.2-0.9-4C419.6,303.2,420.2,304.2,420.9,305.1z"/>
	<path class="st159" d="M406,331.1c0.3,0,0.6,0,0.9,0c-0.9,1.6-2,2.9-4,3C403.6,332.8,404.6,331.7,406,331.1z"/>
	<path class="st154" d="M375.1,367.3c-0.1-1.8-0.7-3.7,0.7-5.3C376.1,363.9,376.2,365.7,375.1,367.3z"/>
	<path class="st152" d="M513.5,369.8c-3.7,0.5-5-0.8-5-4.8c0.2-18.9,0.1-37.8,0.2-56.8c0-1.4-1.1-3.6,1.3-4.2c1.9-0.6,3,1,4.1,2.2
		c6.3,6.8,12.4,13.8,17.8,21.4c3.7,5.1,5.2,9.8,0.9,15.3c-2.1,2.7-3.5,6-5.2,9c0.2,1.4-0.6,2.6-1.1,3.8c-1.5,3.2-3.9,5.9-6.1,8.6
		c-1.4,1.3-2.7,2.7-4.1,4C515.5,369,514.5,369.5,513.5,369.8z"/>
	<path class="st160" d="M496.4,297.2c3.3,26.7,2,53.6,2.2,80.6C495.3,372.6,493.7,314.6,496.4,297.2z"/>
	<path class="st161" d="M513.5,369.8c0.6-0.6,1.2-1.3,1.8-1.9c2-0.6,3.2-2.1,4.2-3.8c2.1-3,4.1-5.9,6.2-8.9c2.5,0.2,1.3,1.7,1,2.9
		c-1.7,4.1-4.3,7.7-7.8,10.4C517.4,369.6,515.6,370.7,513.5,369.8z"/>
	<path class="st162" d="M526.7,358.1c-0.2-1,0.3-2.3-1-2.9c0.3-1.3,0.7-2.5,1.9-3.3C529.8,354.3,527.6,356.1,526.7,358.1z"/>
	<path class="st163" d="M257.3,347.1c-1.8,0.2-2.3-0.8-2.1-2.4c1.7-11.9,5.5-23,14.5-33.2c2.5,9.5,4.9,18.1,7.1,26.7
		c0.1,0.4-0.6,1.1-0.9,1.6C270.1,343.5,264.1,346.3,257.3,347.1z"/>
	<path class="st164" d="M257.3,315.2c1-1,2-2,2.9-3c1-0.1,1.5,0.2,1.1,1.2c-10.1,17.2-15.8,36.1-21.8,54.8c-0.3,0.8-0.4,1.6-1.3,2
		c-1.6-1.3-0.8-2.8-0.5-4.5c2.6-12.6,6.3-24.8,11.2-36.7C251.7,324.4,253.9,319.4,257.3,315.2z"/>
	<path class="st165" d="M294.2,358.1c0,1.1-0.1,2.3,0.9,3c1,5.1,1.9,10.2,3.9,15c0.8,4.5-1.4,6-5.6,5.8c-2.4-0.1-4.9,0-8.1-0.4
		c13.2-6.8,6.1-17,5.4-26.1c-0.3-3.4-1.7-6.7-1.6-10.2c0.1-0.8,0.2-1.7,1.1-2.1c0.4,1,0.7,2,1.1,3
		C292.2,350.1,292.4,354.3,294.2,358.1z"/>
	<path class="st166" d="M257.3,347.1c6.1-2.7,12.2-5.4,18.6-7.2c0.6,0.2,1.5,0.3,1.6,0.6c0.3,0.9-0.6,1.3-1.3,1.6
		c-3.5,0-6,2.5-9.1,3.8c-2.9,1-5.8,2.1-8.8,2.7c-0.5-0.1-0.9-0.3-1.2-0.7C257.2,347.7,257.2,347.4,257.3,347.1z"/>
	<path class="st167" d="M258.3,348.1c2.9-1,5.9-2.1,8.8-3.1c1.1-0.5,2.3-0.8,3.3,0.2c-3.3,2.4-7.3,3.1-11.1,4
		C258.3,349.5,258.1,349.1,258.3,348.1z"/>
	<path class="st137" d="M270.5,345.2c-1.1-0.1-2.2-0.1-3.3-0.2c2.8-1.7,5.4-3.9,9.1-2.9C274.1,342.7,272.8,345,270.5,345.2z"/>
	<path class="st168" d="M283.1,318.2c0.3-0.3,0.7-0.7,1-1c0.6,2.7,1.3,5.3,1.9,8c-0.3,0.3-0.7,0.7-1,1
		C283.8,323.7,283.2,321,283.1,318.2z"/>
	<path class="st169" d="M261.4,313.4c-0.4-0.4-0.7-0.8-1.1-1.2c1.3-1.6,2.7-3.2,4-4.8C265.5,310.4,262.6,311.5,261.4,313.4z"/>
	<path class="st170" d="M236.3,372.1c0.7-0.1,1.3-0.1,2-0.2c0,1.9,0.2,3.8-1.6,5.3C235.8,375.5,236.5,373.7,236.3,372.1z"/>
	<path class="st171" d="M258.3,348.1c0.3,0.3,0.7,0.7,1,1c-0.9,0.9-2.3,1.2-3.2,0.5c-0.8-0.7,0.4-1.3,1-1.7
		C257.5,348,257.9,348.1,258.3,348.1z"/>
	<path class="st172" d="M302,330.8c-0.2-3.8,2-7,2.2-10.7c3.1-8.5,9.9-13.7,16.8-19c1.9-0.7,3.4-2.5,6.6-1.6
		c-12.2,9.9-21.3,21.3-24.5,36.5C300.4,334.8,302,332.6,302,330.8z"/>
	<path class="st173" d="M361,370c0,0.7,0,1.3,0,2c-1.7,0.8-2.1,2.2-2,3.9c-1.9,1.5-1.7,5-5,5.2c-2.7,0.8-5.4,0.7-8.1,0
		c-1,0-1.9-0.1-2.9-0.1c-0.5-0.8-2.6,0-2-1.9c0.7,0,1.3-0.1,2,0c8.4,1.6,13.4-2.2,16-9.9C359.7,369.3,360.3,369.7,361,370z"/>
	<path class="st174" d="M341,379c0.7,0.6,1.3,1.3,2,1.9c-3-0.5-6.1-1.1-9.4-1.7c1.2-1.7,2.5-0.9,3.4-1.2
		C338.4,378.3,339.7,378.7,341,379z"/>
	<path class="st175" d="M347,373.3c1.6,0,3-1.5,5-0.4c-2.6,3.1-5.7,3-8.9,2.1C343.4,372.3,345.9,374.3,347,373.3z"/>
	<path class="st176" d="M302,330.8c0.6,1.7-0.6,3.8,1.1,5.2c0.1,1.3,0.2,2.6-1.1,3.9c-1.7-2.9-0.5-5.9-0.7-8.8
		C301.5,331.1,301.7,331,302,330.8z"/>
	<path class="st177" d="M347,373.3c-1,1.3-3.1,0.2-3.9,1.8c-1.3-0.4-2.6-0.7-3.9-1.1c-0.1-1,0.1-1.5,1.2-1.1
		C342.6,373,344.8,373.1,347,373.3z"/>
	<path class="st178" d="M340.4,372.8c-0.4,0.4-0.8,0.7-1.2,1.1c-0.9-0.4-1.7-0.7-3.2-1.3C338,371.6,339.2,371.9,340.4,372.8z"/>
	<path class="st179" d="M438,310.5c0.9-1.1,1.8-2.3,2.7-3.4c1.1,0,1.6-2.2,3-0.9c-7.7,14.4-10.3,29.9-10.3,46.3
		c-0.5-1.8-1.1-3.7-1.5-5.5c-0.4-1.9-0.7-3.9-1-5.8c0-2.3-0.1-4.7-0.1-7c1-2.2,0.7-4.7,0.8-7C433.4,321.4,435.2,315.7,438,310.5z"/>
	<path class="st180" d="M457.8,379c-2.1,0.4-3.4-1.1-5-2c2.9-2.2,5.4,0,8,0.9C459.8,378.1,458.5,377.8,457.8,379z"/>
	<path class="st174" d="M346,381.1c2.7,0,5.4,0,8.1,0C351.4,382.5,348.7,382.4,346,381.1z"/>
	<path class="st168" d="M192.4,380c2.1,1.9,4.7,0.5,7,1c-5.3,2.6-10.6-0.2-16,0C186.3,379,189.5,380.4,192.4,380z"/>
	<path class="st13" d="M212.7,501.1c2.8-9.3,6.7-17,11.8-25.5c1.8,6.3,3.3,11.6,4.7,16.8c0.5,1.6-0.5,2.3-1.9,2.9
		C222.7,497.1,218.2,498.9,212.7,501.1z"/>
	<path class="st181" d="M523.6,349.5c0-7.6,0-14,0-20.5C532.1,335.6,532.1,335.8,523.6,349.5z"/>
	<path class="st182" d="M519.5,364.1c-0.2,2.6-1.7,3.8-4.2,3.8C516.7,366.6,518.1,365.4,519.5,364.1z"/>
</g>
</svg>
